<svg xmlns="http://www.w3.org/2000/svg" viewBox="0 0 160.2 100.44"><defs><style>.cls-1{fill:#cc1c1f;}.cls-2{fill:#f9af16;}.cls-3{fill:#529db0;}.cls-4{fill:#3680a6;}.cls-5{fill:#f3651c;}.cls-6{fill:#e50006;}.cls-7{fill:#9fc614;}.cls-8{fill:#2a8828;}.cls-9{fill:#233e82;}</style></defs><g id="Capa_2" data-name="Capa 2"><g id="Capa_1-2" data-name="Capa 1"><path class="cls-1" d="M112.45,8.59a27.47,27.47,0,0,1,5.66,13.22,29.77,29.77,0,0,1,2.92-.89,30.77,30.77,0,0,0-7.28-15.47,30.65,30.65,0,0,0-16.11,5.82c.53.86,1,1.77,1.44,2.68a27.62,27.62,0,0,1,13.37-5.36"/><path class="cls-2" d="M138.06,41.71a27.44,27.44,0,0,1,13.25,5.66A27.52,27.52,0,0,1,146,60.71c.91.45,1.81.91,2.68,1.44a30.63,30.63,0,0,0,5.79-16.07,30.55,30.55,0,0,0-15.51-7.29c-.15.66-.34,1.32-.54,2l-.34,1"/><path class="cls-3" d="M160.2,74.82a30.69,30.69,0,0,0-11.54-12.67c-.6.82-1.25,1.6-1.92,2.36a27.6,27.6,0,0,1,10.07,10.31,27.67,27.67,0,0,1-10.06,10.29c.68.75,1.33,1.53,1.93,2.34A30.54,30.54,0,0,0,160.2,74.82"/><path class="cls-2" d="M57.53,8.66A27.47,27.47,0,0,1,70.88,14c.45-.92.91-1.82,1.44-2.68a30.62,30.62,0,0,0-16.09-5.8A30.54,30.54,0,0,0,49,21.05a29.29,29.29,0,0,1,2.9.87A27.53,27.53,0,0,1,57.53,8.66"/><path class="cls-4" d="M82.53,24.29c.21.51.41,1,.59,1.56.06.16.12.33.17.49s.11.32.17.21h0v.29c.55,0,1.08,0,1.63,0s1,0,1.45,0v.71h0a4.55,4.55,0,0,1,.19-1.3c0-.14.1-.29.14-.43.2-.53.39-1.07.61-1.59a30.28,30.28,0,0,1,7.83-11A27.61,27.61,0,0,0,85,3.16,27.58,27.58,0,0,0,74.68,13.25a30.2,30.2,0,0,1,7.85,11"/><path class="cls-5" d="M52,21.92a30.16,30.16,0,0,1,11.47,7.2c.65.64,1.25,1.3,1.82,2-.18.08-.35.18-.54.26,1.11-.52,2.24-1,3.4-1.44h0l0-.52c0-.18,0-.37,0-.55,0-.56-.05-1.11-.05-1.67a31.82,31.82,0,0,1,.3-4.28A30.1,30.1,0,0,1,71,14,27.54,27.54,0,0,0,57.64,8.66,27.61,27.61,0,0,0,52,21.92"/><path class="cls-6" d="M101.13,27.17h0a1.5,1.5,0,0,1,.93,1.64c0,.19,0,.38,0,.56s0,.31,0,.17h.14v.3c.8.36,1.76.76,2.69,1.18h0l.2-.21a12.88,12.88,0,0,0,1.65-2.25h0c.11.33.23.24.34.13a30.26,30.26,0,0,1,7.75-5.47,30.64,30.64,0,0,1,3.36-1.41,27.57,27.57,0,0,0-5.66-13.21A27.66,27.66,0,0,0,99.08,14a30.33,30.33,0,0,1,3,13.22"/><path class="cls-7" d="M138.14,21.77A30.59,30.59,0,0,0,121,21c.09.61.16,1.22.23,1.84l.06.78,0,.39h.06c.43-.11.88-.2,1.32-.29l.44-.1c.48-.09,1-.15,1.45-.22l.34-.05c.5-.06,1-.1,1.5-.13l.3,0c.51,0,1,0,1.53,0h.28c.51,0,1,0,1.51.06l.31,0c.48,0,1,.1,1.45.16l.35,0c.48.07,1,.16,1.45.26l.34.06c.59.13,1.18.27,1.76.44a27.68,27.68,0,0,1,.18,14.37h0c1,.06,2,.14,3,.3a30.67,30.67,0,0,0-.8-17.08"/><path class="cls-5" d="M130.86,52.91c-.57.57-1.17,1.11-1.77,1.63l-.17.15h0c.42.94.83,1.9,1.19,2.86h0l.47,0,.56,0c.54,0,1.1,0,1.66,0a30.32,30.32,0,0,1,13.18,3,27.52,27.52,0,0,0,5.33-13.34,27.51,27.51,0,0,0-13.24-5.67,30.6,30.6,0,0,1-4.73,8.67,29.79,29.79,0,0,1-2.48,2.82"/><path class="cls-4" d="M135.58,72.67c-.51.21-1,.41-1.55.59l-.49.16-.41.14h0c0,.58,0,1.15,0,1.74s0,.92,0,1.39c.84.26,1.68.56,2.51.91a30.25,30.25,0,0,1,11,7.82,27.64,27.64,0,0,0,10.05-10.29,27.55,27.55,0,0,0-10.08-10.31,30.26,30.26,0,0,1-11,7.86"/><path class="cls-3" d="M85,0A30.59,30.59,0,0,0,72.32,11.55h0c.81.6,1.6,1.25,2.36,1.93A27.65,27.65,0,0,1,85,3.39a27.76,27.76,0,0,1,10.29,10c.76-.67,1.54-1.33,2.35-1.92A30.67,30.67,0,0,0,85,0"/><path class="cls-8" d="M136.1,23.71c-.58-.16-1.17-.3-1.76-.44-.11,0-.23,0-.34-.06-.49-.09-1-.18-1.45-.25l-.34,0c-.49-.06-1-.13-1.46-.16l-.31,0c-.5,0-1-.06-1.5-.06h-.29q-.77,0-1.53,0a2.53,2.53,0,0,1-.3,0c-.5,0-1,.07-1.5.13l-.34.05c-.48.06-1,.13-1.45.22l-.43.1c-.45.09-.89.18-1.33.29h-.07l0,.6c0,.21,0,.43,0,.64,0,.44,0,.88,0,1.33,0,.22,0,.44,0,.66,0,.62-.08,1.23-.15,1.85,0,.18,0,.37-.07.55-.06.45-.13.89-.2,1.34,0,.25-.1.5-.15.74-.08.4-.16.78-.26,1.18s-.12.5-.19.75c-.11.41-.24.82-.36,1.22l-.21.66h0c-.21.61-.44,1.24-.7,1.85s-.65,1.47-1,2.18l-.13.23-.17-.16.17.17h0c.75.7,1.48,1.43,2.18,2.18h0c.08,0,.18-.08.25-.12.73-.37,1.46-.72,2.22-1a30.52,30.52,0,0,1,13.33-2.26,27.62,27.62,0,0,0-.18-14.38"/><path class="cls-6" d="M84.05,26.55c-.06-.16-.12-.32-.17-.49s-.12-.35-.17-.52c-.2-.53-.39-1.07-.61-1.6A31.09,31.09,0,0,0,75,12.55h0a30.44,30.44,0,0,0-2.43-2,30.38,30.38,0,0,0-1.48,2.76,31.22,31.22,0,0,0-2.8,9.17,32,32,0,0,0-.3,4.41c0,.57,0,1.15.05,1.71l0,.58c0,.18,0,.36.05.53h0l.21-.08.92-.33,1.19-.4.7-.22.29-.09,1.19-.34,1-.26L75,27.7c.28-.07.56-.14.84-.19.71-.15,1.43-.27,2.14-.38l.88-.12q.7-.11,1.41-.18l.6-.06.39,0c.45,0,.9-.08,1.36-.1l1-.05.46,0h.09"/><path class="cls-4" d="M63.34,28.62a30.27,30.27,0,0,0-11.48-7.2c-1-.33-1.92-.63-2.9-.87h0c0,.24,0,.48-.08.72s-.1.7-.13,1.05,0,.69-.07,1,0,.69-.06,1,0,.71,0,1.06,0,.68,0,1,0,.74.08,1.11.05.66.08,1,.11.78.16,1.16.09.62.14.93.18.84.28,1.26c.06.27.11.55.19.83.12.48.27,1,.41,1.44.07.22.12.43.19.64.23.69.49,1.38.77,2.07l0,0c.32.76.68,1.5,1,2.23l.1.2h0l.25-.24c.26-.24.52-.48.79-.71s.55-.48.82-.72l.46-.38.35-.3c.3-.23.61-.47.9-.71l.8-.6c.36-.27.72-.53,1.09-.78l.66-.46c.57-.39,1.16-.76,1.75-1.13l.67-.39c.4-.24.81-.47,1.22-.7l.78-.41c.39-.21.77-.41,1.17-.6s.54-.26.82-.39l.53-.26c-.57-.67-1.17-1.34-1.81-2"/><path class="cls-7" d="M99.08,14c-.45-.92-.92-1.82-1.44-2.67a26.75,26.75,0,0,0-2.36,1.92,30.45,30.45,0,0,0-7.83,11q-.33.8-.6,1.59l-.15.44c-.06.18-.13.38-.2.3h0v.28h.55l.93.05,1.4.11h.22c.21,0,.43,0,.65.06.54.06,1.08.14,1.61.21.2,0,.41,0,.61.09.71.1,1.41.23,2.11.37l.82.17,1.33.31.91.25,1.22.34.16.05.74.23q.63.19,1.26.42l.79.28s.1,0-.7.06H102c0-.15,0-.31,0-.47s0-.38,0-.57c0-.54,0-1.08.07-1.64h0a30.78,30.78,0,0,0-3-13.22"/><path class="cls-5" d="M121.25,24.55c0-.2,0-.41,0-.6-.13,0-.22.05,0,0h0c0-.21,0-.43,0-.64v0c0-.18,0-.36,0-.54v-.07c-.07-.63-.13-1.24-.23-1.86-1,.25-2,.56-3,.91l-.4.15-1.25.47-.69.32-1,.43a.61.61,0,0,0-.14.07,1.64,1.64,0,0,0-.29.16c-.54.27-1.07.55-1.6.86l-.39.22a30.86,30.86,0,0,0-3.82,2.71h0c-.75.62-1.46,1.26-2.16,1.94l0,0V29A11.54,11.54,0,0,1,105,30.8h0l-.19.21h.32l.65.3.79.38,1.21.62.12.06.62.33c.47.26.93.52,1.38.79l.8.48c.49.31,1,.61,1.45.94l.8.56,1,.67.57.43,1.12.88.31.25c.18.15.37.29.54.44l.79.69.83.74.17.16.13-.23c.36-.71.7-1.44,1-2.19s.48-1.23.7-1.85c.07-.22.13-.44.2-.66.14-.41.26-.82.37-1.23.06-.25.13-.49.18-.74.11-.4.19-.79.27-1.18s.1-.5.14-.74q.12-.68.21-1.35c0-.18,0-.36.07-.54.07-.62.12-1.24.15-1.85,0-.24,0-.48,0-.72s0-.48,0-.73c0-.4,0-.79,0-1.18m-14.07,8h-.47"/><path class="cls-3" d="M136.13,38.55h-.21a30.43,30.43,0,0,0-13.34,2.27c-.76.31-1.49.66-2.21,1l-.26.12h0l.32.33.75.83.78.91.21.25c.1.13.21.25.31.37l.78,1,.55.72c.31.42.61.85.91,1.29.19.27.38.53.55.8.31.47.62.94.91,1.42.16.26.3.51.46.78s.43.73.63,1.1c.09.16.18.32.26.48l.19.37c.19.36.39.72.57,1.09l.41.86c.08.15.14.31.21.46h0c.06,0,.11-.11.17-.15.61-.52,1.2-1,1.77-1.63.43-.42.82-.85,1.2-1.28-.38.43-.77.86-1.2,1.28a29.79,29.79,0,0,0,2.48-2.82,30.35,30.35,0,0,0,4.73-8.67c.11-.32.23-.63.33-1,.2-.65.39-1.3.54-2-1-.15-2-.24-3-.3"/><path class="cls-6" d="M146,61a30.51,30.51,0,0,0-13.19-3c-.55,0-1.11,0-1.65,0l-.56,0-.47,0h0l.09.23c.12.33.24.66.35,1s.24.69.36,1,.13.44.21.66.07.24.11.36c.11.36.21.73.31,1.09l.27,1c.11.42.2.83.29,1.25s.21,1,.31,1.52.17.92.24,1.39.11.7.16,1.06.1.75.14,1.13l.06.58c0,.18,0,.35.05.54,0,.37.06.74.09,1.13l.06,1.11v.31h0l.41-.14.48-.16c.52-.18,1-.38,1.55-.59a30.3,30.3,0,0,0,11.06-7.86c.68-.77,1.33-1.54,1.92-2.36-.86-.53-1.76-1-2.67-1.44"/><path class="cls-7" d="M148.68,87.46c-.6-.82-1.25-1.6-1.92-2.35a30.42,30.42,0,0,0-11-7.82,26.18,26.18,0,0,0-2.52-.91h0a47.6,47.6,0,0,1-2,12.5c-.29,1-.62,2-1,2.94v0h0c.84.07,1.7.1,2.56.1A30.18,30.18,0,0,0,143.49,90h0c.65-.25,1.28-.51,1.91-.79l.2-.1q.84-.39,1.65-.84l.32-.16c.36-.21.74-.41,1.11-.64v0"/><path class="cls-9" d="M0,98.87l1.5-1.61a2.5,2.5,0,0,0,1.85.88c1.07,0,1.76-.66,1.78-2.42V75.55h3V95.68c-.34,3.15-2.06,4.76-4.59,4.76A4.62,4.62,0,0,1,0,98.87M4.53,69.56a1.92,1.92,0,0,1,3.84,0,1.92,1.92,0,0,1-3.84,0"/><path class="cls-9" d="M10.13,85.55v-10h3V85c0,2.76,1.33,4.29,4,4.29a4.69,4.69,0,0,0,5-5V75.55h3v16H21.87L22,88.33a6.06,6.06,0,0,1-5.68,3.57c-3.53,0-5.95-2.42-5.95-6.49"/><path class="cls-9" d="M25.38,76.55H28.3l4.17,9.07a17.26,17.26,0,0,1,.87,2.69,15.82,15.82,0,0,1,.84-2.69l4.09-9.07H41l-7.51,16H33Z"/><path class="cls-9" d="M48.84,89.65a6.49,6.49,0,0,0,5-2.1l1.64,1.6a8.36,8.36,0,0,1-6.67,2.77c-5.22,0-8.59-3.61-8.59-8.25a8.14,8.14,0,0,1,8.21-8.29c5.1,0,8.17,3.92,8,9.17H42.94c.34,3,2.41,5.1,5.9,5.1m4.92-7.1a5,5,0,0,0-5.3-4.87A5.32,5.32,0,0,0,43,82.55Z"/><path class="cls-9" d="M58.13,75.55h2.63l-.07,3.28A6,6,0,0,1,66.3,75.2c3.46,0,5.83,2.44,5.83,6.61v9.74h-3V82.18c0-2.8-1.33-4.41-4-4.41a4.68,4.68,0,0,0-5,5v8.75h-2v-16Z"/><path class="cls-9" d="M75.13,87.55v-9h-2v-2h2v-4h3v4h4v2h-4v8.62c0,2.11.73,2.76,1.88,2.76A2.87,2.87,0,0,0,82.15,89l1.46,1.69a5.15,5.15,0,0,1-3.87,1.58c-2.42,0-4.26-1.38-4.26-5.14"/><path class="cls-9" d="M84.13,85.55v-10h3V85c0,2.76,1.18,4.29,3.53,4.29,2.7,0,4.47-1.91,4.47-5V75.55h3v16H95.72l.08-3.22a6.07,6.07,0,0,1-5.68,3.57c-3.53,0-6-2.42-6-6.49"/><path class="cls-9" d="M100,84c0-4.73,3.38-8.25,7.67-8.25,3,0,5,1.49,5.44,3.61V64.55h3v28h-2.34l.07-4a6.65,6.65,0,0,1-6.13,3.72C103.4,92.23,100,88.7,100,84m13.89,0a5.5,5.5,0,0,0-5.65-5.87c-3.33,0-5.48,2.45-5.48,5.87s2.15,5.94,5.48,5.94,5.65-2.5,5.65-5.94"/><path class="cls-9" d="M12.74,63.53A8.15,8.15,0,0,1,21,55.25a7.61,7.61,0,0,1,6.26,2.84l-1.93,1.57a5.07,5.07,0,0,0-4.33-2c-3.37,0-5.49,2.53-5.49,5.9s2.12,5.91,5.49,5.91a5.61,5.61,0,0,0,4.57-2.07l1.84,1.57A7.69,7.69,0,0,1,21,71.78a8.11,8.11,0,0,1-8.25-8.25"/><path class="cls-9" d="M29.13,65.55v-10h3V65c0,2.76,1.18,4.3,3.53,4.3,2.7,0,4.47-1.92,4.47-5V55.55h3v16H40.74l.08-3.22a6,6,0,0,1-5.67,3.56c-3.53,0-5.95-2.41-5.95-6.47"/><rect class="cls-9" x="47.13" y="47.55" width="3" height="24"/><path class="cls-9" d="M54.13,66.55v-9h-2v-2h2v-8h3v8h4v2h-4v9.17c0,2.11.73,2.76,1.88,2.76a2.87,2.87,0,0,0,2.14-.92l1.46,1.69a5.15,5.15,0,0,1-3.87,1.57c-2.42,0-4.26-1.38-4.26-5.14"/><path class="cls-9" d="M64.13,65.55v-10h2V65c0,2.76,1.33,4.3,4,4.3a4.69,4.69,0,0,0,5-5V55.55h3v16H75.24l.07-3.22a6,6,0,0,1-5.67,3.56c-3.53,0-6-2.41-6-6.47"/><path class="cls-9" d="M81.3,55.55H84l-.07,3.15a4.89,4.89,0,0,1,4.64-3.41,4.61,4.61,0,0,1,2.76.76l-1,2.35a3.65,3.65,0,0,0-2.18-.62c-2.27,0-4.11,1.61-4,5.33v8.44h-3v-16Z"/><path class="cls-9" d="M102,61.55c0-2.85-1.39-4-3.73-4a5.44,5.44,0,0,0-4.64,2.31L92,58.32a7.52,7.52,0,0,1,6.47-3.07c3.54,0,6.69,6.49,6.69,6.49v9.81h-2.88l.12-2.55a6.3,6.3,0,0,1-5.63,2.87c-3.61,0-6.24-1.64-6.24-5.17s2.86-5.15,6.45-5.15h5Zm-4.85,3c-2.13,0-3.78.74-3.78,2.65s1.41,2.77,4,2.77,4.76-1.35,4.76-3.42v-2Z"/><path class="cls-9" d="M61.13,45.55h.09L64.14,49,67,45.55h.1v6h-1v-4a1.19,1.19,0,0,1-.17-.69,5.89,5.89,0,0,1-.43.63l-1.81,2h-.11l-1.79-2c-.19-.24-.43-.63-.43-.63s0,.42.74.69v4h-1Z"/><rect class="cls-9" x="68.13" y="45.55" width="1" height="6"/><path class="cls-9" d="M70.78,47.36c-.17-.21-.42-.55-.42-.55l-1.23.68v4.06h1v-7h-.21l3.57,5.15c.17.21.41.56.41.56a.91.91,0,0,1,.23-.68v-4h0v6h.22Z"/><rect class="cls-9" x="75.13" y="45.55" width="1" height="6"/><path class="cls-9" d="M77.16,50.38l.53-.28a1.63,1.63,0,0,0,1.54.93c.7,0,1.24-.38,1.24-1s-.38-.92-1.13-1.25l-.47-.22c-.86-.38-1.32-.8-1.32-1.64a1.46,1.46,0,0,1,1.58-1.44,1.79,1.79,0,0,1,1.62.9l-.52.32a1.2,1.2,0,0,0-1.1-.65.85.85,0,0,0-1,.85c0,.53.29.77,1,1.08l.48.22c1,.45,1.5.94,1.5,1.83s-.79,1.58-1.86,1.58a2.18,2.18,0,0,1-2.09-1.21"/><polygon class="cls-9" points="83.13 46.55 81.13 46.55 81.13 45.55 85.13 45.55 85.13 46.55 84.13 46.55 84.13 51.55 83.13 51.55 83.13 46.55"/><polygon class="cls-9" points="86.13 45.55 90.13 45.55 90.13 46.55 87.13 46.55 87.13 48.55 90.13 48.55 90.13 49.55 87.13 49.55 87.13 50.55 90.13 50.55 90.13 51.55 86.13 51.55 86.13 45.55"/><path class="cls-9" d="M95.1,51.55h-.75L93.2,49.88c-.2,0-.43.06-.63-.33h-.44v2h-1v-6h1.44a2.16,2.16,0,0,1,2.48,2.2,2,2,0,0,1-1.25,1.93Zm-2-2.17c.75,0,1.26-.69,1.26-1.63s-.51-1.65-1.86-1.2h-.4v3h1Z"/><rect class="cls-9" x="96.13" y="45.55" width="1" height="6"/><path class="cls-9" d="M97.76,48.53a3.08,3.08,0,1,1,3.07,3.06,3,3,0,0,1-3.07-3.06m5.49,0a2.42,2.42,0,1,0-2.42,2.5,2.39,2.39,0,0,0,2.42-2.5"/><path class="cls-9" d="M106.13,45.55h1.46a3,3,0,1,1,0,6h-1.46Zm1.8,5a2.51,2.51,0,1,0,0-5h-.8v5Z"/><polygon class="cls-9" points="112.13 45.55 116.13 45.55 116.13 46.55 113.13 46.55 113.13 48.55 116.13 48.55 116.13 49.55 113.13 49.55 113.13 50.55 116.13 50.55 116.13 51.55 112.13 51.55 112.13 45.55"/><path class="cls-9" d="M111.13,59.93l-2.36-4.38h.71l1.63,3.24a4.06,4.06,0,0,1,.25.6s.14-.36.26-.6l1.62-3.24h.66l-1.77,4.35v1.65h-1V59.93Z"/></g></g></svg>