<svg xmlns="http://www.w3.org/2000/svg" viewBox="0 0 247.7 32.03"><defs><style>.cls-1{fill:#2566af;fill-rule:evenodd;}</style></defs><g id="Capa_2" data-name="Capa 2"><g id="Capa_1-2" data-name="Capa 1"><path class="cls-1" d="M160.44,9V19h-14V8.87a3.65,3.65,0,0,1,3-3.87h7.36A3.87,3.87,0,0,1,160.44,9Zm61.5-4h4.92a3.57,3.57,0,0,1,3.58,3.62V23.35A3.6,3.6,0,0,1,226.9,27H222a3.6,3.6,0,0,1-3.53-3.65V8.67A3.61,3.61,0,0,1,221.94,5Zm-84.5,3.77V32h9V25h14v7h9V8.94C169.33,3.13,166,0,161.36,0H144.64c-4.78,0-7.2,4.1-7.2,8.77Zm102,15.76V7.46A7.46,7.46,0,0,0,232,0H216.91a7.47,7.47,0,0,0-7.47,7.45V24.58A7.47,7.47,0,0,0,216.91,32l0,0h15A7.5,7.5,0,0,0,239.44,24.53ZM6.85,19l.5,1H19a3.42,3.42,0,0,1,3.25,3,3.2,3.2,0,0,1-3.34,4H1.44v5H24.8a8,8,0,0,0,2.56-.64c3-1.43,4.23-4.57,4.33-7.5,0-.94,0-1.73,0-2.67C31.63,14.58,29.76,12,22.63,12H10.8c-2.62-.06-3.27-2.21-3.21-4,.12-3.45,2.93-3,5.82-3h16V0H6.68A8.41,8.41,0,0,0,4.43.37C1.43,1.46.14,4.9,0,8.82-.15,13.63,1.6,18.81,6.85,19Zm188.59-8.54V32h9V8.82c0-5.48-3.13-8.82-8.7-8.82h-21.3V32h9V5h8.31C194.82,5,195.44,7.91,195.44,10.46ZM119.09,5c2,.32,4.35.6,4.35,4.49V32h9V10.07C132.34,5.41,132.57.35,125,0H90.44V32h9V5h8V32h8V5ZM74.44,0V32h9V0Zm-29,0h-9V32h9V25h13v7h9V0h-9V19h-13ZM244.61,6.48a2.68,2.68,0,1,1,2.67-2.68A2.67,2.67,0,0,1,244.61,6.48ZM243.44,4V3h1c.46,0,.55.29.55.49,0,.37-.2.51-.61.51Zm1.17,3.17a3.15,3.15,0,0,0,2.44-5.1A2.45,2.45,0,0,0,245,1h-.6a2.7,2.7,0,0,0-2.35,1.25A3.13,3.13,0,0,0,244.61,7.17ZM243.44,6h1V4h.18c.57.21.61.41.61.92s0,.57.08.08h1.13v.89c-.16-.06-.16-.21-.16-.79,0-.75-.16-.87-.45-1a1,1,0,0,0,.55-1A1.08,1.08,0,0,0,245.25,2h-1.81V6Z"/></g></g></svg>