<svg xmlns="http://www.w3.org/2000/svg" viewBox="0 0 253.98 133.21"><defs><style>.cls-1{fill:#1b3277;}.cls-2{fill:#afcb0a;}.cls-3{fill:#b1cc0f;}.cls-4{fill:#29378c;}.cls-5{fill:#b0cb0c;}.cls-6{fill:#2b388d;}.cls-7{fill:#2d3a8e;}.cls-8{fill:#2a388d;}.cls-9{fill:#feda27;}.cls-10{fill:#1d3478;}.cls-11{fill:#b2cd14;}.cls-12{fill:#b7d024;}.cls-13{fill:#b4ce18;}.cls-14{fill:#fdfdfa;}.cls-15{fill:#f8faea;}</style></defs><g id="Capa_2" data-name="Capa 2"><g id="Capa_1-2" data-name="Capa 1"><path class="cls-1" d="M136.23,21.56c2.9,4.61,5.46,8.79,8.14,12.89.81,1.23.75,1.68-.75,2a83.79,83.79,0,0,1-11.48,1.78,1.7,1.7,0,0,1-1.82-1q-9.09-14.64-18.25-29.24a1.47,1.47,0,0,1,.28-2.26A21.09,21.09,0,0,1,126.46.06c6.72-.11,13.45,0,20.18-.06,1.4,0,1.71.43,1.7,1.76q-.1,9,0,18.09c0,1.35-.33,1.79-1.72,1.74C143.32,21.49,140,21.56,136.23,21.56Z"/><path class="cls-2" d="M117.8,47l-2.56-4.3c1.94.11,3.61.17,5.28.32a66.18,66.18,0,0,0,9.34.08,1.86,1.86,0,0,1,2,1c3.35,5.42,6.7,10.84,10.14,16.2.76,1.19.39,1.78-.51,2.58a21.46,21.46,0,0,1-14.6,5.56c-6.45.06-12.89,0-19.34,0-1.35,0-1.76-.36-1.74-1.75.07-6,.07-12.06,0-18.08,0-1.39.4-1.75,1.74-1.72C110.82,47.09,114.12,47,117.8,47Z"/><path class="cls-3" d="M81.92,96.33c0,3.71-.06,7.29,0,10.88,0,1.38-.41,1.75-1.77,1.76-5.44,0-5.44.08-5.44-5.36,0-8.75.05-17.49,0-26.24,0-1.65.45-2.26,2.08-2a8.51,8.51,0,0,0,2.08,0c1.59-.18,2.91-.06,2.63,2.14,6.57-3.76,11.85-3.36,15.44,1.09,3.74,4.64,3.49,12.4-.53,17C92.94,99.46,87.59,99.81,81.92,96.33Zm4.87-3.9c3.39,0,5.58-2.13,5.63-5.57a5.55,5.55,0,1,0-11.1-.18A5.3,5.3,0,0,0,86.79,92.43Z"/><path class="cls-4" d="M221,98.75c-4.43-.16-8.7-2-10.85-7a11.6,11.6,0,0,1,1.89-13c3.95-4.56,12.05-5.37,17.35-1.84a12,12,0,0,1,3.91,15.13C231.38,96.23,226.94,98.78,221,98.75Zm.87-6.32a5.66,5.66,0,1,0-5.68-5.51A5.31,5.31,0,0,0,221.89,92.43Z"/><path class="cls-5" d="M33.52,74.87c7.51,0,12.71,4.81,12.74,11.8S41,98.77,33.51,98.75s-12.65-5-12.66-12S26.06,74.88,33.52,74.87Zm-.05,17.57a5.66,5.66,0,0,0,.3-11.31,5.66,5.66,0,0,0-.3,11.31Z"/><path class="cls-5" d="M60.16,74.87c7.52,0,12.72,4.81,12.76,11.8s-5.27,12.1-12.75,12.08-12.66-5-12.66-12S52.7,74.88,60.16,74.87Zm.07,17.57c3.35,0,5.52-2.21,5.54-5.63s-2.19-5.72-5.66-5.68a5.66,5.66,0,0,0,.12,11.31Z"/><path class="cls-5" d="M116.16,89c-2.15,0-4.31.08-6.46,0-1.7-.07-1.49.66-.9,1.71A5.26,5.26,0,0,0,117,91.8c1.27-1.26,2-1,3,0,.11.09.23.16.34.24,3.4,2.5,3.39,2.79-.28,5a13.62,13.62,0,0,1-15.67-1.68,12.27,12.27,0,0,1-2-14.41c2.63-4.93,9.36-7.44,15-5.57,5.44,1.82,7.23,7.17,7,12.65,0,1-.62,1.06-1.38,1C120.74,89,118.45,89,116.16,89Zm-3.6-4.93c1.1,0,2.22-.07,3.32,0,1.48.11,1.45-.67,1-1.64A4.11,4.11,0,0,0,112.74,80a4.91,4.91,0,0,0-4.35,3c-.22.77-.07,1.17.84,1.14C110.34,84.07,111.45,84.1,112.56,84.11Z"/><path class="cls-6" d="M191.25,81.31c.8,5.07.31,10.18.48,15.27,0,1.22-.23,1.79-1.58,1.65-1.78-.19-4.09.72-5.23-.34s-.31-3.41-.36-5.18c-.07-2.43,0-4.86,0-7.29-.09-2.91-1.2-4.22-3.45-4.29-2.54-.08-4,1.22-4.12,4.13-.16,3.74-.12,7.5-.06,11.24,0,1.37-.39,1.86-1.77,1.73a21.23,21.23,0,0,0-3.74,0c-1.31.1-1.82-.26-1.8-1.7q.1-9.78,0-19.56c0-1.27.31-1.77,1.62-1.64a14.06,14.06,0,0,0,3.11,0c1.72-.2,2.72.21,2.09,2.79,3.26-3.55,6.85-3.93,10.67-2.7a5.28,5.28,0,0,1,3.72,4.11Z"/><path class="cls-6" d="M144.83,91.25c.34.18.49,0,.52-.32.35-3.86,2.91-5.56,6.3-6.48a26.86,26.86,0,0,1,7.41-.79c1.84,0,1.77-.82,1-2-1.38-2.28-5-2.58-7.81-.76-.65.41-1.18,1.69-1.92,1.17A19.79,19.79,0,0,1,147,78.68c-.36-.42.27-.67.54-.91,3.5-3.16,11.71-4,15.73-1.58,2.55,1.54,3.47,4,3.77,6.82.5,4.63.11,9.27.24,13.91,0,1-.34,1.37-1.33,1.3a16.64,16.64,0,0,0-2.91,0c-1.58.17-2.74-.06-2.39-2.4A10,10,0,0,1,151,98.45c-3-.71-5.07-2.45-5.59-5.68-.06-.4.1-1.16-.75-.59A.9.9,0,0,1,144.83,91.25Zm13.52-3a8.64,8.64,0,0,0-4.91,1.07c-1.8,1.16-1.68,3.2.17,4.12A5.63,5.63,0,0,0,160,91.85a3.36,3.36,0,0,0,.65-3.14C160.21,87.65,159,88.48,158.35,88.27Z"/><path class="cls-2" d="M109.93,9.05l18.19,29.18a65.84,65.84,0,0,1-15.73-.92,1.52,1.52,0,0,1-.86-.52c-6.49-8.17-8-17.77-2.18-27.21A4.21,4.21,0,0,1,109.93,9.05Z"/><path class="cls-7" d="M191.25,81.31l-.46-1.78c1.43-.39.71-1.57.69-2.33,0-1.36.23-2,1.79-1.89,2.69.12,2.7,0,2.7-2.73,0-4,0-4,4-4,3.24,0,3.24,0,3.24,3.27,0,3.47,0,3.42,3.44,3.51.87,0,2.3-.66,2.56.5a9,9,0,0,1-.11,4.92c-.26.73-1.38.29-2.11.3-3.78,0-3.78,0-3.78,3.79,0,1.39,0,2.78,0,4.16,0,3,1.34,4.19,4.35,3.54,1.51-.33,1.83,0,1.81,1.49-.06,4.56,0,4.59-4.69,4.67a12.09,12.09,0,0,1-4.69-.71c-2.93-1.14-4-3.46-4-6.4s-.09-5.82,0-8.73c.07-1.5-.45-2-1.87-1.8C193.18,81.26,192.19,80.94,191.25,81.31Z"/><path class="cls-8" d="M243.37,98.75a14.36,14.36,0,0,1-7.57-1.87c-1.22-.74-1.8-1.49-.38-2.59a6.5,6.5,0,0,0,.57-.6c.74-.82,1.34-2,2.26-2.4,1.16-.56,1.67,1.07,2.66,1.44a7.12,7.12,0,0,0,4.27.38c.67-.16,1.38-.45,1.45-1.29a1.46,1.46,0,0,0-1.17-1.53c-1.39-.43-2.79-.8-4.2-1.14-4.58-1.12-6.41-3-6.39-6.66s2.34-6.56,6.61-7.36c3.61-.68,7.18-.49,10.4,1.68,1,.66,1.2,1.24.17,2a10.31,10.31,0,0,0-1.37,1.27c-1.13,1.22-2.17,2.64-3.88.67a2.19,2.19,0,0,0-1.36-.44c-1.3-.08-2.94-.36-3.29,1.32s1.35,1.79,2.48,2.13c1.66.49,3.37.8,5,1.37a5.66,5.66,0,0,1,4.14,5.19c.24,3-.69,5.33-3.37,6.82A14.16,14.16,0,0,1,243.37,98.75Z"/><path class="cls-8" d="M144.83,91.25a.9.9,0,0,0-.19.93c.06,2.19-1.18,3.64-2.84,4.76-3.7,2.5-11.35,2.38-15.11-.11-1.13-.75-1.61-1.41-.36-2.46a6.88,6.88,0,0,0,1.12-1.23c1.18-1.65,2.27-2.62,4.21-.69,1.17,1.15,3,1,4.56.63.68-.17,1.36-.48,1.39-1.33a1.46,1.46,0,0,0-1.22-1.48c-2-.57-4-1-6-1.65a6.56,6.56,0,0,1-3-10.6,7.18,7.18,0,0,1,1.51-1.4c3.49-2.42,10.13-2.39,13.65,0,1.13.76,1.65,1.44.28,2.46a10.19,10.19,0,0,0-1.34,1.29c-1,1.16-2.06,2.26-3.57.52a2.15,2.15,0,0,0-1.34-.48c-1.39-.15-3.12-.35-3.44,1.4s1.42,1.72,2.58,2c1.4.39,2.82.7,4.21,1.11C143.06,85.84,144.85,87.85,144.83,91.25Z"/><path class="cls-5" d="M13.25,74.87a11,11,0,0,1,6.93,2.06c.88.61,1.1,1.15.19,1.93a22.66,22.66,0,0,0-1.73,1.8c-1.1,1.17-1.91,2.39-3.94.91-1.84-1.35-4.84-.22-6.23,1.75A6.48,6.48,0,0,0,9,90.87a5,5,0,0,0,6.44.72c1-.73,1.45-.65,2.13.2a28.62,28.62,0,0,0,2,2.11c1.82,1.87,1.79,2.12-.45,3.36A13.82,13.82,0,0,1,4.61,96,12.05,12.05,0,0,1,.9,83C2.41,78,7.07,74.86,13.25,74.87Z"/><path class="cls-9" d="M139.79,24.92c4.2.63,8.18,1.41,11.68,3.71,3.87,2.55,3.87,5.88-.1,8.29-4.48,2.72-9.52,3.61-14.61,4.28a86.81,86.81,0,0,1-22.14,0,43.8,43.8,0,0,1-11.81-2.94,13.84,13.84,0,0,1-1.49-.75c-1.78-1-3.57-2.17-3.59-4.46,0-2.44,1.71-3.8,3.72-4.81a21,21,0,0,1,2.25-1.07c.54-.2,1.21-.55,1.55.36s-.14,1.09-.81,1.36A12.11,12.11,0,0,0,102.23,30c-2.59,1.75-2.59,3.64,0,5.32A20.79,20.79,0,0,0,109.59,38c12.24,2.45,24.44,2.55,36.52-1a13.51,13.51,0,0,0,4.28-2c1.79-1.33,1.9-2.79.22-4.3-2.25-2-5.09-2.68-7.94-3.29C141.35,27.14,140.05,26.87,139.79,24.92Z"/><path class="cls-10" d="M144.23,59.59,133.9,43c2.79-.47,5.4-.9,8-1.35.81-.14,1.62-.32,2.43-.52,3.28-.81,3.28-.81,3.79,2.5A21.7,21.7,0,0,1,144.23,59.59Z"/><path class="cls-11" d="M121.16,128.11c-2.09,1.32-4,1.57-5.77,0a5.33,5.33,0,0,1-1.29-5.74,4.26,4.26,0,0,1,6.4-2.35c.56.32,1.07,1.12,1.26-.3,0-.42.71-.25,1.1-.23.6,0,.57.5.57.91,0,3,.09,6.11-.1,9.15-.12,2-1.6,2.95-3.45,3.38a5.45,5.45,0,0,1-5.39-1.29c-.33-.32-.51-.68-.11-1.07s.83-.61,1.4-.1a3.46,3.46,0,0,0,3.09.87C120.51,131.05,121.49,130.2,121.16,128.11Zm.13-3.65c0-1.88-1.11-3.24-2.66-3.26-1.34,0-2.66,1.52-2.72,3.15a3.11,3.11,0,0,0,2.77,3.06C120.32,127.46,121.28,126.37,121.29,124.46Z"/><path class="cls-11" d="M89.11,128.46c0,1.07,0,2.22,0,3.37,0,.81-.27,1.12-1.07,1.13s-1.11-.25-1.1-1.07c0-3.81,0-7.63,0-11.44,0-1.13,1.14-1.2,1.32-.88.88,1.57,1.62.29,2.39,0a4.44,4.44,0,0,1,5.1,1.79,5.73,5.73,0,0,1-.42,6.6,4.13,4.13,0,0,1-5.12.72C89.93,128.55,89.71,128.21,89.11,128.46Zm5.34-4.2c0-1.47-1.48-3.17-2.85-3a2.5,2.5,0,0,0-2.52,2.9c.08,2,1,3.27,2.66,3.28A3.07,3.07,0,0,0,94.45,124.26Z"/><path class="cls-3" d="M68,120.27a10.19,10.19,0,0,0,.17-3.3c0-.84.19-1.24,1.15-1.24s1.08.53,1.07,1.3q0,4.05,0,8.12a4.06,4.06,0,0,0,.32,2.21c.3.51.48,1.29-.17,1.66a1.21,1.21,0,0,1-1.66-.41c-.48-.78-.84-.3-1.32-.06-2.37,1.17-4.39.86-5.79-.88a5.7,5.7,0,0,1,0-6.77c1.39-1.72,3.13-1.91,5.78-.64A1.26,1.26,0,0,0,68,120.27Zm.23,4.16c0-1.86-1.17-3.26-2.7-3.22a3.11,3.11,0,0,0-2.67,3.16,3.06,3.06,0,0,0,2.76,3C67.28,127.46,68.26,126.34,68.27,124.43Z"/><path class="cls-11" d="M179.9,120.41c2-1.08,3.95-1.7,5.76.06A5.24,5.24,0,0,1,187,126a4.4,4.4,0,0,1-4.89,3.24c-1.16-.19-2.19-1.33-3.56-.21-.53.43-1-.24-1-1q0-5.59,0-11.19c0-.82.32-1.07,1.1-1.08s1.06.31,1.07,1.09A11,11,0,0,0,179.9,120.41Zm-.28,4.13a2.61,2.61,0,0,0,2.73,2.87,3.06,3.06,0,0,0,2.66-3.13,3.13,3.13,0,0,0-2.76-3.08C180.84,121.18,179.6,122.76,179.62,124.54Z"/><path class="cls-11" d="M28.52,126.84a4.75,4.75,0,0,1-6,2.16,4.9,4.9,0,0,1-3-5.53,4.71,4.71,0,0,1,5.18-4.07,4.66,4.66,0,0,1,4.56,4c.17,1.12,0,1.7-1.32,1.62-1.59-.09-3.19,0-4.79,0-.4,0-.9-.08-1.1.35s.11.95.45,1.29a2.5,2.5,0,0,0,3.71.29A1.68,1.68,0,0,1,28.52,126.84Zm-4.11-3.13c.81-.5,2.37.68,2.47-.77.09-1.22-1.22-1.9-2.52-1.9s-2.6.71-2.49,1.93C22,124.36,23.56,123.24,24.41,123.71Z"/><path class="cls-11" d="M130.81,121.62c1,.37,1-.68,1.43-1.05a5.24,5.24,0,0,1,5.09-.93,4.35,4.35,0,0,1,3.11,3.57c.23,1.2.12,2-1.49,1.86s-3,0-4.57,0c-.39,0-.89-.09-1.09.36a1.16,1.16,0,0,0,.44,1.3,2.57,2.57,0,0,0,3.87.14c.77-.71,1.57-.6,2-.09.58.72-.34,1.19-.84,1.55a5,5,0,0,1-5.48.42c-2-1-2.59-2.71-2.58-4.82,0-.79.8-1.51.15-2.32Zm4.8,2.09c.84-.47,2.4.65,2.53-.75.12-1.23-1.19-1.9-2.49-1.92s-2.59.68-2.49,1.91C133.27,124.41,134.82,123.19,135.61,123.71Z"/><path class="cls-11" d="M217.69,119.4a4.6,4.6,0,0,1,4.83,3.93c.16,1.14,0,1.85-1.44,1.74s-3.18,0-4.78,0c-1.24,0-1.23.62-.68,1.45a2.65,2.65,0,0,0,4,.38c.85-.72,1.7-.66,2.12,0s-.49,1.15-1,1.55a5.3,5.3,0,0,1-6-.06,5.15,5.15,0,0,1-1.72-5.6A4.77,4.77,0,0,1,217.69,119.4Zm-.08,4.3c.89-.41,2.42.59,2.6-.69s-1.15-1.94-2.44-2-2.7.69-2.57,2S216.83,123.23,217.61,123.7Z"/><path class="cls-11" d="M196.87,119.4a4.62,4.62,0,0,1,4.84,3.94c.2,1.21,0,1.82-1.44,1.73-1.58-.11-3.18,0-4.77,0-1.25,0-1.24.62-.71,1.44a2.65,2.65,0,0,0,4,.4c.86-.74,1.71-.66,2.12,0s-.49,1.16-1,1.55a5.26,5.26,0,0,1-6,0,5.15,5.15,0,0,1-1.71-5.6A4.72,4.72,0,0,1,196.87,119.4Zm-.14,4.32c.84-.6,2.5.81,2.64-.83.11-1.19-1.24-1.88-2.54-1.85s-2.55.71-2.45,2S196,123.25,196.73,123.72Z"/><path class="cls-11" d="M71.82,124.71c0-3.09,1.84-5.09,4.4-5.3a4.82,4.82,0,0,1,5.39,3.79c.22,1.17.17,2-1.47,1.87a47.42,47.42,0,0,0-4.77,0c-.38,0-.88-.13-1.07.36s.17.79.41,1.11a2.66,2.66,0,0,0,4,.35c.76-.64,1.52-.67,2-.11.57.73-.33,1.22-.84,1.58a5,5,0,0,1-5.29.46A4.46,4.46,0,0,1,71.82,124.71Zm5-1c.79-.51,2.34.68,2.45-.75.1-1.24-1.2-1.91-2.49-1.91s-2.6.67-2.49,1.9C74.44,124.36,76,123.24,76.84,123.71Z"/><path class="cls-11" d="M55.29,126.85a4.78,4.78,0,0,1-6,2.14,5,5,0,0,1-3-5.76,4.72,4.72,0,0,1,5-3.83A4.65,4.65,0,0,1,56,123.47c.23,1.25-.15,1.63-1.35,1.59-1.53-.06-3,0-4.58,0-.45,0-1.06-.18-1.28.38s.18,1.08.59,1.43A2.54,2.54,0,0,0,53,127,1.66,1.66,0,0,1,55.29,126.85Zm-4.22-3.14c.84-.49,2.42.68,2.54-.78.1-1.25-1.24-1.91-2.55-1.88s-2.59.74-2.44,2S50.27,123.22,51.07,123.71Z"/><path class="cls-12" d="M.06,122.71c0-1.52.12-3.06,0-4.57-.18-1.73.54-2.12,2.11-2,1.79.12,3.6,0,5.4,0,.62,0,1.25-.12,1.27.88s-.54,1.11-1.32,1.1c-1,0-2.09,0-3.12,0-1.29-.09-2,.11-2,1.73s.62,2,2.08,1.89a21.65,21.65,0,0,1,2.28,0c.63,0,1.09.15,1.1.91s-.27,1-1,1c-1.42.1-3.31-.66-4.15.39-.69.87-.26,2.65-.27,4,0,.84-.4,1-1.15,1.06-.91,0-1.22-.33-1.2-1.22C.09,126.18.06,124.45.06,122.71Z"/><path class="cls-11" d="M108.23,119.4a4.83,4.83,0,0,1,4.89,4.86,5,5,0,0,1-4.94,5.08,4.91,4.91,0,0,1-5-5A4.75,4.75,0,0,1,108.23,119.4Zm2.64,4.95a3,3,0,0,0-2.7-3.13,3.14,3.14,0,0,0-2.76,3.1,2.75,2.75,0,1,0,5.46,0Z"/><path class="cls-13" d="M237.88,127.93c.23-3.94,1-4.67,5-4.69.49,0,1.23.41,1.39-.39a1.44,1.44,0,0,0-.95-1.65,3.51,3.51,0,0,0-3.18.3c-.52.27-1,.56-1.35-.21s.16-1,.66-1.26c3.64-2.09,7.1-.11,7.12,4.07a8.64,8.64,0,0,0,.42,3.66c.16.36.28,1-.25,1.3a1.08,1.08,0,0,1-1.36-.14c-.68-1.07-1.32-.56-2-.12-2.09,1.29-3.75,0-5.47-.94Zm4.51-3.45c-1.18.1-2.35.27-2.39,1.71a1.55,1.55,0,0,0,1.82,1.53c1.27-.09,2.56-.59,2.57-2.12C244.4,124.34,243.17,124.64,242.39,124.48Z"/><path class="cls-11" d="M202.92,124.23c0-1.18,0-2.36,0-3.54,0-.45-.16-1.06.54-1.15.45-.06,1.19-.25,1.3.25.32,1.4.86.49,1.36.23,3.17-1.62,5.35-.35,5.43,3.2,0,1.59,0,3.19,0,4.78,0,.78-.25,1.11-1.07,1.12s-1.11-.27-1.09-1.08c0-1.38,0-2.77,0-4.15,0-1.12-.06-2.46-1.54-2.51a2.54,2.54,0,0,0-2.73,2.34c-.17,1.15,0,2.35-.09,3.52-.05.76.53,1.93-1.09,1.87s-.94-1.23-1-2A28,28,0,0,1,202.92,124.23Z"/><path class="cls-11" d="M154.71,119.4a4.8,4.8,0,0,1,4.84,5.11,5,5,0,0,1-9.94-.25A4.83,4.83,0,0,1,154.71,119.4Zm2.69,5a3.24,3.24,0,0,0-2.65-3.21,3.18,3.18,0,0,0-2.94,3.14,3,3,0,0,0,2.75,3.07A3.07,3.07,0,0,0,157.4,124.42Z"/><path class="cls-13" d="M163.39,119.73c1.56-.58,2.33-.11,2.78,1.32.55,1.76,1.29,3.46,2.1,5.57a24.12,24.12,0,0,0,2.12-5.6c.4-1.28,1-1.94,2.54-1.28-1.45,3.93-2.88,7.87-4.38,11.79a2.65,2.65,0,0,1-2.64,1.68c-.6,0-1.14-.05-1.19-.81,0-.57,0-1,.76-1.2,1.75-.48,1.89-1.77,1.27-3.27C165.65,125.24,164.55,122.55,163.39,119.73Z"/><path class="cls-3" d="M9.25,123.3c0-.9,0-1.8,0-2.7s.25-1.11,1.07-1.11,1.1.27,1.08,1.07c0,1.38-.06,2.77,0,4.15s0,2.75,1.82,2.66a2.57,2.57,0,0,0,2.63-2.84c0-1.25,0-2.49,0-3.74,0-.75,0-1.31,1.06-1.31s1,.57,1.05,1.31c.12,2.39-.4,4.83.48,7.17.12.34.17.89-.31,1.09a1.26,1.26,0,0,1-1.52-.33c-.43-.56-.68-.75-1.45-.35-3.89,2-5.88.77-5.9-3.62C9.24,124.27,9.25,123.78,9.25,123.3Z"/><path class="cls-13" d="M30.42,124.28c0-1.18.06-2.36,0-3.53-.09-1.46,1.11-1.7,1.6-1,.84,1.09,1.3.42,2,.12,2.84-1.25,4.87-.07,5,3,.09,1.65,0,3.32,0,5,0,.74,0,1.33-1.05,1.36s-1.17-.65-1.16-1.47c0-1.25,0-2.49,0-3.74s.07-2.48-1.45-2.53a2.58,2.58,0,0,0-2.81,2.49,34.51,34.51,0,0,0,0,3.94c0,.77,0,1.31-1.07,1.31s-1.06-.58-1.05-1.32C30.43,126.63,30.42,125.45,30.42,124.28Z"/><path class="cls-13" d="M227.35,119.38a5,5,0,0,1,2.58.67c.38.21,1,.39.61,1.06-.29.52-.62.93-1.3.47a3.67,3.67,0,0,0-2.35-.63c-.6,0-1.31.23-1.43,1s.53,1.06,1.11,1.26c.85.3,1.72.52,2.58.78a2.41,2.41,0,0,1,2,2.57,2.71,2.71,0,0,1-2.12,2.52,6.65,6.65,0,0,1-5.21-.65c-.43-.23-.87-.49-.53-1.11s.63-.84,1.3-.43a4.8,4.8,0,0,0,2.74.81c.69,0,1.49-.15,1.58-1,.07-.72-.53-1.07-1.15-1.26s-1.34-.36-2-.56c-1.33-.42-2.56-1-2.35-2.69a3,3,0,0,1,2.94-2.71C226.66,119.39,227,119.4,227.35,119.38Z"/><path class="cls-13" d="M145.15,129.35a7.82,7.82,0,0,1-3.47-1c-.43-.26-.87-.48-.49-1.12s.68-.79,1.32-.37a4.87,4.87,0,0,0,2.56.78c.69,0,1.51-.06,1.69-.88s-.47-1.22-1.18-1.44-1.59-.48-2.38-.72a2.31,2.31,0,0,1-1.91-2.18,2.64,2.64,0,0,1,1.51-2.55,5.29,5.29,0,0,1,5.18.21c.44.25.85.52.42,1.13-.32.45-.64.71-1.19.34a3.61,3.61,0,0,0-2.37-.63c-.59,0-1.32.17-1.45.94s.51,1.08,1.09,1.3a14.76,14.76,0,0,0,1.61.45c1.63.42,3.12,1,2.94,3.1C148.9,128.27,147.32,129.31,145.15,129.35Z"/><path class="cls-3" d="M237.88,127.93l0-.07c-.69,1.8-2.22,1.4-3.51,1.2s-1.51-1.27-1.5-2.4c0-1.39,0-2.78,0-4.17,0-.57.2-1.21-.78-1.38-.74-.12-.55-1.24-.33-1.3,1.49-.37,1.09-1.5,1.11-2.45,0-.68.22-1,1-1s1.21.17,1.15,1c-.08,1.19-.22,2.42,1.66,2.2.41,0,.39.46.41.81,0,.66-.34.86-.9.79-1.13-.14-1.22.52-1.18,1.39s0,1.66,0,2.49c0,1.3,0,2.48,1.88,2C237.48,127,237.41,127.8,237.88,127.93Z"/><path class="cls-3" d="M44.11,129.19c-2,.07-2.88-.68-2.86-2.45,0-1.31,0-2.63,0-3.95,0-.66.38-1.56-.89-1.69-.47,0-.36-1-.31-1,2.38-.28,0-3.46,2.26-3.73,1.24-.14,1.07.79,1,1.53-.05,1-.05,1.84,1.35,1.64.51-.08.72.22.74.74s-.12,1-.78.91c-1.44-.2-1.33.75-1.31,1.67s0,1.94,0,2.91c0,.69.17,1.35.91,1.41s1.83-.38,1.71,1S44.59,128.9,44.11,129.19Z"/><path class="cls-12" d="M248.41,124.21c0-1.18,0-2.35,0-3.52s.67-1.56,1.37-1.13a2.58,2.58,0,0,0,2.92,0c.43-.23,1.15-.3,1.26.54.07.55.14,1.25-.58,1.35-2.79.36-2.86,2.31-2.73,4.44.05.76,0,1.52,0,2.28s-.35,1-1,1-1.22-.1-1.21-1C248.43,126.83,248.41,125.52,248.41,124.21Z"/><path class="cls-3" d="M97.9,124.1c0-1.17,0-2.35,0-3.53a1,1,0,0,1,1.75-.87c.61,1.78,1.23.32,1.81.12s1.39-.81,1.78.05.06,1.53-1.08,1.74a2.55,2.55,0,0,0-2.18,3,25.67,25.67,0,0,1,0,2.91c0,.69.3,1.54-1,1.57s-1.1-.71-1.1-1.48C97.91,126.46,97.9,125.28,97.9,124.1Z"/><path class="cls-3" d="M130.83,121.59c-2.5,0-3.32.75-3.34,3,0,1.11,0,2.22,0,3.33,0,.74-.15,1.15-1,1.14s-1.1-.25-1.09-1.07c0-2.5,0-5,0-7.49,0-.38-.15-.9.44-1s1.15-.24,1.33.24c.28.75.35,1,1.19.45,2.25-1.39,2.46-1.22,2.45,1.38Z"/><path class="cls-12" d="M190.66,124.47c0,1.11,0,2.22,0,3.32,0,.77-.07,1.34-1.09,1.34s-1.18-.41-1.17-1.25c0-2.36,0-4.72,0-7.07,0-.77.06-1.34,1.08-1.34s1.19.41,1.17,1.25C190.64,122,190.66,123.22,190.66,124.47Z"/><path class="cls-12" d="M189.59,115.75c1-.13,1.07.52,1.08,1.27s-.28,1.1-1.08,1.12-1.18-.37-1.18-1.22S188.68,115.62,189.59,115.75Z"/><path class="cls-14" d="M86.79,92.43a5.3,5.3,0,0,1-5.47-5.75,5.55,5.55,0,1,1,11.1.18C92.37,90.3,90.18,92.47,86.79,92.43Z"/><path class="cls-14" d="M221.89,92.43a5.66,5.66,0,1,1,5.48-5.71A5.29,5.29,0,0,1,221.89,92.43Z"/><path class="cls-14" d="M33.47,92.44a5.66,5.66,0,0,1,.3-11.31,5.66,5.66,0,0,1-.3,11.31Z"/><path class="cls-14" d="M60.23,92.44a5.66,5.66,0,0,1-.12-11.31c3.47,0,5.68,2.18,5.66,5.68S63.58,92.43,60.23,92.44Z"/><path class="cls-14" d="M112.56,84.1c-1.11,0-2.22,0-3.33,0-.91,0-1.06-.37-.84-1.14a4.91,4.91,0,0,1,4.35-3,4.11,4.11,0,0,1,4.16,2.53c.43,1,.46,1.75-1,1.64C114.78,84,113.66,84.11,112.56,84.1Z"/><path class="cls-14" d="M158.35,88.27c.69.21,1.86-.62,2.28.44a3.36,3.36,0,0,1-.65,3.14,5.63,5.63,0,0,1-6.37,1.61c-1.85-.92-2-3-.17-4.12A8.64,8.64,0,0,1,158.35,88.27Z"/><path class="cls-14" d="M121.29,124.46c0,1.91-1,3-2.61,3a3.11,3.11,0,0,1-2.77-3.06c.06-1.63,1.38-3.16,2.72-3.15C120.18,121.22,121.29,122.58,121.29,124.46Z"/><path class="cls-14" d="M94.45,124.26a3.07,3.07,0,0,1-2.71,3.15c-1.65,0-2.58-1.27-2.66-3.28a2.5,2.5,0,0,1,2.52-2.9C93,121.09,94.47,122.79,94.45,124.26Z"/><path class="cls-14" d="M68.27,124.43c0,1.91-1,3-2.61,3a3.06,3.06,0,0,1-2.76-3,3.11,3.11,0,0,1,2.67-3.16C67.1,121.17,68.28,122.57,68.27,124.43Z"/><path class="cls-14" d="M179.62,124.54c0-1.78,1.22-3.36,2.63-3.34a3.13,3.13,0,0,1,2.76,3.08,3.06,3.06,0,0,1-2.66,3.13A2.61,2.61,0,0,1,179.62,124.54Z"/><path class="cls-15" d="M24.41,123.71c-.85-.47-2.4.65-2.54-.74-.11-1.22,1.19-1.93,2.49-1.93s2.61.68,2.52,1.9C26.78,124.39,25.22,123.21,24.41,123.71Z"/><path class="cls-15" d="M135.61,123.71c-.79-.52-2.34.7-2.45-.76-.1-1.23,1.18-1.92,2.49-1.91s2.61.69,2.49,1.92C138,124.36,136.45,123.24,135.61,123.71Z"/><path class="cls-15" d="M217.61,123.7c-.78-.47-2.28.62-2.41-.61s1.18-2.06,2.57-2,2.6.73,2.44,2S218.5,123.29,217.61,123.7Z"/><path class="cls-15" d="M196.73,123.72c-.78-.47-2.25.56-2.35-.71s1.16-1.94,2.45-2,2.65.66,2.54,1.85C199.23,124.53,197.57,123.12,196.73,123.72Z"/><path class="cls-15" d="M76.84,123.71c-.84-.47-2.4.65-2.53-.76-.11-1.23,1.19-1.91,2.49-1.9s2.59.67,2.49,1.91C79.18,124.39,77.63,123.2,76.84,123.71Z"/><path class="cls-15" d="M51.07,123.71c-.8-.49-2.29.63-2.45-.65s1.13-2,2.44-2,2.65.63,2.55,1.88C53.49,124.39,51.91,123.22,51.07,123.71Z"/><path class="cls-14" d="M110.87,124.35a2.75,2.75,0,1,1-5.46,0,3.14,3.14,0,0,1,2.76-3.1A3,3,0,0,1,110.87,124.35Z"/><path class="cls-15" d="M242.39,124.48c.78.16,2-.14,2,1.12,0,1.53-1.3,2-2.57,2.12a1.55,1.55,0,0,1-1.82-1.53C240,124.75,241.21,124.58,242.39,124.48Z"/><path class="cls-15" d="M157.4,124.42a3.07,3.07,0,0,1-2.84,3,3,3,0,0,1-2.75-3.07,3.18,3.18,0,0,1,2.94-3.14A3.24,3.24,0,0,1,157.4,124.42Z"/></g></g></svg>