<svg xmlns="http://www.w3.org/2000/svg" viewBox="0 0 629.92 208.44"><defs><style>.cls-1{fill:#020202;}.cls-2{fill:#030303;}.cls-3{fill:#010101;}.cls-4{fill:#4e4e4e;}.cls-5{fill:#505050;}.cls-6{fill:#1f1f1f;}.cls-7{fill:#d4d4d4;}</style></defs><g id="Capa_2" data-name="Capa 2"><g id="Capa_1-2" data-name="Capa 1"><path class="cls-1" d="M249.62,0h10.52s2.2.73,2.42,1.85c1.68,5,3.56,9.93,5.35,14.9,2.47,7,4.85,14,7.32,21,1.9,5.36,3.85,10.72,5.77,16.07.45,1.26.86,2.52,1.34,3.78.11.34.31.71.68.73a1,1,0,0,0,.86-.76l4-11.49q2.67-7.54,5.22-15.11c1.69-4.87,3.35-9.75,5.05-14.61,1.49-4.21,2.95-8.42,4.55-12.59C304.06.19,308,1,308,1h19.14s2.18-.16,2.39,1c1.34,4.2,2.8,8.34,4.2,12.51s2.88,8.66,4.37,13c2,5.69,4,11.34,5.95,17.08a135.31,135.31,0,0,1,4.19,12.88,1.33,1.33,0,0,0,1,1.06c.44,0,.59-.59.73-1,3.11-8.54,6.14-17.12,9.38-25.62,2.81-7.46,5.36-15,8-22.56,1-2.68,2.09-5.36,3-8C370.49.52,372,0,372,0h21.78s1.34.57,1,1.61c-1.68,4.62-3.32,9.27-5,13.9q-3,8.43-6.06,16.84c-2,5.6-4,10.85-6,16.3-1.9,5.22-3.71,10.48-5.6,15.7C370,70,368,75.55,366,81.17s-3.9,10.91-5.79,16.38a2.39,2.39,0,0,1-2.68,2c-5.44-.1-10.89,0-16.34,0A1.92,1.92,0,0,1,338.9,98c-2.74-7.87-5.65-15.68-8.5-23.52q-3.42-9.37-6.79-18.75T317,37.28c-.13-.36,0-.92-.52-1s-.81.4-1,.86c-1.14,3.21-2.25,6.44-3.42,9.65-2.29,6.37-4.62,12.71-6.91,19.08-2.18,6.09-4.31,12.2-6.47,18.29-1.62,4.58-3.21,9.18-4.86,13.75a2.12,2.12,0,0,1-2.34,1.56c-5.44-.09-10.89-.1-16.34,0a2.53,2.53,0,0,1-2.83-1.9C271,93.8,269.61,90,268.23,86.18c-2.29-6.32-4.59-12.63-6.85-19s-4.36-12.34-6.57-18.5-4.54-12.27-6.76-18.42c-1.66-4.57-3.24-9.16-4.89-13.73q-2.68-7.35-5.36-14.73C237.35.62,237.39,0,239,.08,242.46.23,249.62,0,249.62,0Z"/><path class="cls-2" d="M558.82,109H607c1.56,0,2.11.35,2.09,2q-.14,9.61,0,19.25c0,1.41-.37,1.74-1.72,1.74h-74c-1.33,0-1.69.34-1.67,1.66.08,3.83.11,7.68,0,11.52,0,1.45.44,1.71,1.79,1.71q34,0,68-.08c1.69,0,2.31.32,2.27,2.18-.14,6.29-.1,12.58,0,18.87,0,1.64-.44,2.16-2.16,2.14H533.36c-1.53,0-2.16.27-2.08,2,.15,3.61.13,7.26,0,10.87,0,1.62.51,1.92,2,1.92q36.72-.09,73.42,0c2.31,0,2.31,0,2.31,2.3v18.74c0,1.66-.4,2.19-2.12,2.17-9.5-.06-19,0-28.53,0H510.63c-2.62,0-2.62,0-2.62-2.53V111.39a4.06,4.06,0,0,1,3-3.39Z"/><path class="cls-2" d="M383,158.51V110.75c-.52-1.6,0-2,1.5-2,28.05,0,56.08-.08,84.13,0a31.68,31.68,0,0,1,26.68,13.82,28.77,28.77,0,0,1,5.28,17.06c.07,12.47.17,24.94,0,37.41-.2,12.95-6.58,22.15-18,27.9a32,32,0,0,1-14.33,3.1H384.78c-2.24,0-2.24,0-1.77-2.33ZM437.7,185h0c4.33,0,8.65.08,13,0,6.51-.16,13,.25,19.53-.24a7.2,7.2,0,0,0,6.8-7.45V139.72a7,7,0,0,0-3.79-6.7,10.55,10.55,0,0,0-4.91-1H407.19c-1.34,0-1.8.31-1.78,1.74q.07,24.67,0,49.34c0,1.47.44,1.87,1.87,1.87Q422.49,185,437.7,185Z"/><path class="cls-1" d="M258.19,171.07c0-11.25-.35-22.52.09-33.75.46-11.46,5.88-20.28,16.26-25.77a25.09,25.09,0,0,1,15.88-2.09h50c16.56-2.56,28.1,5.65,32.92,19.35A32.8,32.8,0,0,1,375,139.76v65.9c0,1.77-.41,2.37-2.27,2.34-6.42-.12-12.84-.08-19.26,0-1.56,0-2.1-.3-2.08-2.08.14-9.52.09-19,.13-28.56,0-1-.29-1.44-1.36-1.36h-68c-1.78,0-2.27.4-2.25,2.26.11,9.33,0,18.66.07,28,0,1.36-.39,1.77-1.72,1.75H259.64c-1.6,0-1.63-.73-1.63-1.91v-35ZM316.13,153H349c1.24,0,1.71-.3,1.69-1.63,0-4.53.15-9.08-.13-13.6-.24-3.94-2-5.77-5.35-5.77H286.94a4.43,4.43,0,0,0-4.85,3.94s0,.08,0,.12c-.79,4.92-.21,9.86-.43,14.79,0,1.6.35,2.18,2.09,2.17C294.53,153,305.32,153,316.13,153Z"/><path d="M494.61,60.85a3.79,3.79,0,0,1-1.89.15H423.43c-.15,0-.34-.17-.42-.12a.4.4,0,0,0,0,.52V75.59a.26.26,0,0,0-.2.29.21.21,0,0,0,.07.12c.16.24.38.19.57,0H499.6a15.42,15.42,0,0,1,1.95.08,53.81,53.81,0,0,0-.16,7.07c0,4.37-.1,8.75,0,13.12,0,2.73.18,2.73-2.49,2.73H402.36C400,99,400,99,400,96.69V4.3C400,1,400,1,403.3,1h82.43c4.22,0,8.44.1,12.65,0,1.43,0,1.65.35,1.63,1.61-.08,4,0,7.9,0,11.85v6.92c0,.95,0,2.12-1.63,1.62a3.76,3.76,0,0,0-1.06,0H425a8.18,8.18,0,0,0-1.4,0c-.62.1-1.18.39-.1,1.53L423.09,38c-.47.47-.16.66.19.84a4.45,4.45,0,0,0,2.08.2H495v.37a1.3,1.3,0,0,0-.5,1.17C494.49,47.29,494.21,54.08,494.61,60.85Z"/><path class="cls-3" d="M618.09,61.91l-.61.46a2.31,2.31,0,0,0-1.89,1.34h0c-2,.56-3.83,1.68-5.85,2.3-1.06.32-2.46-.2-3.16,1.1l-1,.09c-3.9-.55-7.84-.09-11.75-.24-.61,0-1.46,0-1.56.54a1.35,1.35,0,0,0,1.17,1.43h0a1,1,0,0,0,1,1.1h.07l14.49,15.68q5.84,6.3,11.64,12.62c.38.41,1,.83.77,1.43s-1,.24-1.48.24H590.23a3.25,3.25,0,0,1-2.72-1.21c-9.75-10.86-19.57-21.73-29.34-32.7q-9.45-10.56-18.85-21.16l-.09-.15c.13-1.36,1.15-.78,1.79-.78H597.4c1,0,2.26.45,2.91-.89l.71-.45c.53,0,1-.15.9-.81l.46-.59c.83-.61,1.45-1.32,1-2.44l.09-.65c.19-.12.53-.23.54-.37.37-3,.77-6-.25-8.91,0-.08-.18-.11-.29-.16l-.09-.65c.34-.51.38-.91-.37-1h0c-.13-.9-.25-1.81-1.32-2.1l-.35-.36c-.1-.66-.6-.63-1.07-.66a.59.59,0,0,1-.28-.18c-.15-.47-.41-.49-.75-.19l-.66-.08c-.48-.92-1.32-.49-2-.49H534a10.74,10.74,0,0,0-1.39,0c-.49.08-.92.28-.57.93V97.4a4.76,4.76,0,0,1-.19,2.25,13.48,13.48,0,0,0-2.1-.32c-6.23,0-12.45-.17-18.64,0-2.11.08-2.07-.65-2.07-2.14V3.91C509,1,509,1,512,1h88.89a23.34,23.34,0,0,1,3.54.27c.72.11,1.52.44,2.23-.12l1,.12C608.82,2.49,610.54,2.48,612,3s2.25,1.56,3.71,1.55l.64.42c0,.67.58.65,1.07.71h0c0,.51.31.67.78.63h0c0,.47.26.73.78.64l.93.85a.92.92,0,0,0,.79,1h.25a1.15,1.15,0,0,1,.12.25,1,1,0,0,0,1,1.13l.36.35a2.13,2.13,0,0,0,1.49,2h0c-.07.74.12,1.34,1,1.48l.25.51c-.19.53.1.75.57.84a.3.3,0,0,1,.15.23c-.12,1.81,1.17,3.15,1.7,4.74.38,1.18.29,2.69,1.49,3.57l.11,1a2.64,2.64,0,0,0,.64,2.85l.14,2a25.81,25.81,0,0,0,0,8l-.16,2.4a2.37,2.37,0,0,0-.62,2.87l-.1,1c-1.72,1.16-1.06,3.1-1.62,4.64l-.22.81c-1.19.26-.79,1.34-1.15,2.09l-.18.57a2.39,2.39,0,0,0-1.37,2.16h0c-.57,0-.65.4-.5.87a.41.41,0,0,1-.17.22c-.69,0-.82.45-.76,1l-1.79,2.12c-.54,0-.67.31-.69.75l-1.36,1.34a1.06,1.06,0,0,0-1.14,1Z"/><path class="cls-1" d="M180.76.18c9,0,17.92-.15,26.88,0,12.7.25,22.39,5.92,28.72,17a29,29,0,0,1,3.42,14.6c0,12.06.1,24.11,0,36.17-.12,13.23-6.69,22.57-18.18,28.48a31.19,31.19,0,0,1-14.24,3.09c-18,0-36,.25-53.93,0-12.59-.22-22.27-6.06-28.46-17.16A27.49,27.49,0,0,1,121.7,68.7c0-12.47.08-24.94,0-37.39A30.82,30.82,0,0,1,142.1,2.37,33.6,33.6,0,0,1,154.41.16C163.2.2,172,.18,180.76.18ZM180.57,77h27.69c5.48-.07,8.51-2.89,8.52-8q.12-19.19,0-38.25a7,7,0,0,0-4.87-7.13,14.87,14.87,0,0,0-5.13-.65H155.05a30.86,30.86,0,0,0-3.33.22,7.16,7.16,0,0,0-6.91,7.41,1.77,1.77,0,0,0,0,.23q-.09,18.69,0,37.37a7,7,0,0,0,3.9,6.72,11.41,11.41,0,0,0,5.11,1Z"/><path class="cls-2" d="M0,49.47C0,33.6.08,17.71,0,1.84,0,.32.47,0,1.9,0H87.28C98,0,105.61,5.27,110.93,14.22c4.8,8.06,5.78,17,4.45,26.06A32.89,32.89,0,0,1,103.2,61.87,23.69,23.69,0,0,1,87.75,67H54.23a3.83,3.83,0,0,1-3-1.33c-6.67-6.76-13.33-13.45-20-20.16-.36-.36-1-.64-.82-1.21s.92-.3,1.42-.3H86.35C90,44,91.24,42.76,92,39.11a25.47,25.47,0,0,0-.17-11.39c-.65-2.76-2.07-4.16-4.93-4.15q-30.69.12-61.38,0c-1.69,0-2.14.46-2.14,2.14q.08,35.51,0,71C23.4,99,23.4,99,21,99H1.89C.55,99,0,98.8,0,97.22.08,81.33,0,65.4,0,49.47Z"/><path class="cls-4" d="M422.49,23.94c-.39-.65.07-.86.56-.94a8.3,8.3,0,0,1,1.41,0h72.9a3.69,3.69,0,0,1,1.05,0c1.56.49,1.58-.66,1.6-1.59V2.58c0-1.23-.19-1.63-1.6-1.58-4.14.16-8.29,0-12.44,0H403.28C400,1,400,1,400,4.3V96.69c0,2.37,0,2.33,2.34,2.31h94.41c2.67,0,2.48,0,2.43-2.67-.1-4.27,0-8.55,0-12.83a51.25,51.25,0,0,1,.16-6.9c.9.1.66.81.66,1.33V98c0,1.43-.49,2-1.94,2H400.85c-1.34,0-1.84-.32-1.84-1.78V1.84C399,.5,399.43,0,400.79,0l97.63,0c1.34,0,1.75.38,1.74,1.71,0,6.63-.07,13.27,0,19.91,0,1.54-.44,2-2,2q-36.85-.07-73.71,0C423.81,23.61,423.08,23.37,422.49,23.94Z"/><path class="cls-5" d="M604.69.73c-.7.56-1.48.22-2.19.12A15.87,15.87,0,0,0,599,1H512s-3-.42-3,2.49V96.7c0,1.48,0,2.22,2,2.14,6.07-.24,12.17-.09,18.26,0a12.81,12.81,0,0,1,2.06.32c-.21.89-1,.52-1.44.84H510.06c-1.46-.32-2.05-2.3-2.05-2.3V1.84S508.57,0,509.84,0h91A9.15,9.15,0,0,1,604.69.73Z"/><path class="cls-4" d="M495.12,39H425.35a7.35,7.35,0,0,1-2.08-.33c-.33-.17-.63-.35-.26-.76.8.66,1.68.16,2.53.09h67.95C494.13,38.1,495,37.87,495.12,39Z"/><path class="cls-6" d="M629,201.4a6.87,6.87,0,1,1-7-6.7h.34A6.7,6.7,0,0,1,629,201.4Zm-11.91-.07a5.1,5.1,0,0,0,5,5.24,2.67,2.67,0,0,0,.4,0,5.26,5.26,0,0,0-.24-10.51,5.1,5.1,0,0,0-5.12,5.11v.16Z"/><path class="cls-5" d="M531.55,23.84c-.36-.65.08-.85.58-.93a4,4,0,0,1,1.41.09h63.52c.69-.09,1.56-.53,2,.4a2.86,2.86,0,0,0-1.9.6H533.55C532.88,23.51,532.14,23.26,531.55,23.84Z"/><path class="cls-5" d="M600.88,43.31c-.65,1.34-1.93.91-2.94-.31H541.38c-.62,1.22-1.63.68-1.76,2-.41-.21-1-.41-.83-.94.26-.73,1-.36,1.54,0h56.25C598,43.73,599.47,43.61,600.88,43.31Z"/><path class="cls-4" d="M494.52,61.2c-.4-6.9-.12-13.82-.18-20.72a1.36,1.36,0,0,1,.51-1.19,32.62,32.62,0,0,1,.16,6.09V59.55C495,60.12,495.41,60.89,494.52,61.2Z"/><path class="cls-5" d="M591.73,68.41A1.34,1.34,0,0,1,590.6,67c.09-.52.92-.56,1.52-.53,3.83.15,7.69-.31,11.51.24a37.24,37.24,0,0,1-10.85.4C591.44,67,591.43,67.46,591.73,68.41Z"/><path class="cls-5" d="M627.51,37.53a26.37,26.37,0,0,1,0-8A13.41,13.41,0,0,1,627.51,37.53Z"/><path class="cls-5" d="M604.11,28.72c.11,0,.28.08.3.16,1,3,.62,6,.25,9,0,.15-.36.26-.55.38A35.73,35.73,0,0,0,604.11,28.72Z"/><path class="cls-5" d="M604.65,66.59c.68-1.34,2.06-.78,3.09-1.1,2-.62,3.74-1.74,5.73-2.31A17.38,17.38,0,0,1,604.65,66.59Z"/><path class="cls-5" d="M626.64,23.56c-1.18-.88-1.09-2.38-1.46-3.56-.52-1.59-1.78-2.93-1.66-4.74A24.08,24.08,0,0,1,626.64,23.56Z"/><path class="cls-5" d="M613.55,4.11c-1.43,0-2.38-1.09-3.63-1.55s-3.13-.49-4.24-1.71A16.48,16.48,0,0,1,613.55,4.11Z"/><path class="cls-5" d="M625.06,48.44c.55-1.54-.09-3.49,1.59-4.64A11.81,11.81,0,0,1,625.06,48.44Z"/><path class="cls-5" d="M626.75,42.81a2.41,2.41,0,0,1,.6-2.87A3.57,3.57,0,0,1,626.75,42.81Z"/><path class="cls-5" d="M627.38,27.42a2.65,2.65,0,0,1-.63-2.85A3.22,3.22,0,0,1,627.38,27.42Z"/><path class="cls-5" d="M604,39c.46,1.16-.17,1.87-1,2.48C603.32,40.61,603.67,39.78,604,39Z"/><path class="cls-5" d="M622.26,54.06a2.38,2.38,0,0,1,1.34-2.15A3.8,3.8,0,0,1,622.26,54.06Z"/><path class="cls-5" d="M602.26,24.89c1.11.29,1.23,1.22,1.34,2.13A7.3,7.3,0,0,1,602.26,24.89Z"/><path class="cls-5" d="M621.62,12.19a2.15,2.15,0,0,1-1.44-2A5,5,0,0,1,621.62,12.19Z"/><path class="cls-5" d="M623.72,51.33c.35-.71,0-1.82,1.12-2.09C624.38,49.88,624.71,50.93,623.72,51.33Z"/><path class="cls-5" d="M613.49,63.18a2.29,2.29,0,0,1,1.84-1.34A2.64,2.64,0,0,1,613.49,63.18Z"/><path class="cls-5" d="M622.57,13.68c-.82-.16-1-.74-.94-1.47A3,3,0,0,1,622.57,13.68Z"/><path class="cls-5" d="M615.92,61.4a1.06,1.06,0,0,1,1.11-1h0A1.34,1.34,0,0,1,615.92,61.4Z"/><path class="cls-5" d="M619.81,9.79c-.7,0-.95-.5-1-1.13A1.52,1.52,0,0,1,619.81,9.79Z"/><path class="cls-5" d="M592.77,69.51a1,1,0,0,1-1-1v-.07A1.52,1.52,0,0,1,592.77,69.51Z"/><path class="cls-5" d="M603.63,27c.76.12.72.52.37,1Z"/><path class="cls-5" d="M618.7,8.41a.92.92,0,0,1-1-.81,1,1,0,0,1,0-.24A1.48,1.48,0,0,1,618.7,8.41Z"/><path class="cls-5" d="M615.23,5.24c-.48,0-1,0-1.05-.71C614.61,4.65,615.07,4.73,615.23,5.24Z"/><path class="cls-5" d="M620.85,56.17c0-.57.07-1,.75-1C621.44,55.55,621.32,56,620.85,56.17Z"/><path class="cls-5" d="M600.82,23.86c.48,0,1,0,1.08.67C601.43,24.43,601,24.35,600.82,23.86Z"/><path class="cls-5" d="M602.52,42c0,.67-.38.82-.91.82C601.75,42.4,602.14,42.24,602.52,42Z"/><path class="cls-5" d="M621.76,55c-.14-.47-.06-.81.5-.87A1.21,1.21,0,0,1,621.76,55Z"/><path class="cls-5" d="M618.43,59c0-.44.15-.76.67-.75A.82.82,0,0,1,618.43,59Z"/><path class="cls-4" d="M423,61.78c-.2-.16-.27-.38,0-.52s.27.08.41.12Z"/><path class="cls-4" d="M423.37,76.24c-.19.2-.4.24-.57,0a.24.24,0,0,1,0-.34.23.23,0,0,1,.12-.06Z"/><path class="cls-5" d="M599.77,23.48c.35-.3.62-.28.76.19Z"/><path class="cls-5" d="M616,5.87c-.45,0-.75-.12-.76-.63A.81.81,0,0,1,616,5.87Z"/><path class="cls-5" d="M623.37,15c-.47-.09-.75-.31-.56-.84A.71.71,0,0,1,623.37,15Z"/><path class="cls-5" d="M616.77,6.51c-.51.1-.73-.17-.77-.64A1,1,0,0,1,616.77,6.51Z"/><path class="cls-7" d="M617.1,201.33a5.12,5.12,0,0,1,5-5.27h.12a5.26,5.26,0,0,1,.24,10.51,5.1,5.1,0,0,1-5.31-4.88C617.1,201.57,617.1,201.45,617.1,201.33ZM620,201H620v2.6c0,.44.16.81.7.81s.7-.37.78-.78a3.12,3.12,0,0,0,0-.87c0-.28,0-.87.46-1s.85.19,1.2.5a2.89,2.89,0,0,1,.72,1.55.79.79,0,0,0,.91.65.43.43,0,0,0,.16,0c.52-.14.55-.54.44-1a3.53,3.53,0,0,0-.33-1.15,1.52,1.52,0,0,1,.12-2.13c.56-.62.36-1.34-.38-2a4.54,4.54,0,0,0-4.31-.49c-1.07.28-.4,1.62-.57,2.46A4.23,4.23,0,0,0,620,201Z"/><path class="cls-6" d="M619.91,201a4.22,4.22,0,0,1,0-.87c.17-.84-.5-2.18.57-2.46a4.54,4.54,0,0,1,4.31.49c.74.61.94,1.34.38,2a1.52,1.52,0,0,0-.12,2.13,3.53,3.53,0,0,1,.33,1.15c.11.43.08.83-.44,1a.77.77,0,0,1-1-.44.43.43,0,0,1,0-.16,2.89,2.89,0,0,0-.72-1.55c-.35-.31-.67-.72-1.2-.5s-.45.63-.46,1,0,.59,0,.87a.82.82,0,0,1-.78.78c-.52,0-.7-.37-.7-.81V201Zm3.5-1.09c-.2-.68-.8-.77-1.34-.83s-.84.48-.83,1,.32,1,1,.81S623.37,200.69,623.41,199.91Z"/><path class="cls-7" d="M623.41,199.91c0,.78-.64.9-1.2,1a.75.75,0,0,1-1-.81c0-.63.09-1.1.83-1S623.21,199.23,623.41,199.91Z"/></g></g></svg>