<svg xmlns="http://www.w3.org/2000/svg" viewBox="0 0 467.52 340"><defs><style>.cls-1{fill:#f30202;}.cls-2{fill:#03579f;}.cls-3{fill:#060606;}.cls-4{fill:#080808;}.cls-5{fill:#090909;}.cls-6{fill:#070707;}.cls-7{fill:#0358a0;}.cls-8{fill:#3a3a3a;}.cls-9{fill:#f0f0f0;}</style></defs><g id="Capa_2" data-name="Capa 2"><g id="Capa_1-2" data-name="Capa 1"><path class="cls-1" d="M9.52,340a150.48,150.48,0,0,0-5.63-69.43A9.91,9.91,0,0,0,3,268.08c-5.5-8.17-2.65-14.73,2.63-22.14,32.65-45.84,71-85.58,119.85-114.38,37.92-22.36,79.2-33.82,122.86-37.28,36.84-2.92,72.29,2.5,104.83,20.52,37,20.46,69.2,46.84,93.93,81.57a134.43,134.43,0,0,1,12.24,21.1c.76,1.66,2.05,3.29.69,5.29-24.4-36.58-54.07-67.24-94.51-86.13-29.66-13.86-60.71-17.1-92.85-12.94-74.14,9.52-133.4,46.42-183.91,99.6C62.55,250.79,43.13,282.8,25,315.76c-3.83,7-7.83,13.87-11.9,20.72C12.33,337.85,12.09,340,9.52,340Z"/><path class="cls-2" d="M116.43,122.43c3.34-16.67-3.57-29.76-12.41-42-14.4-20.09-33.08-35.86-52.51-50.8a33.46,33.46,0,0,1-6-5.44C126.28,62.36,213.07,66.52,300.09,71c-9.93,2.13-19.85,4.24-29.76,6.4-35.58,7.81-71.55,13.9-106.51,24.41C147.41,106.73,131.16,112.07,116.43,122.43Z"/><path class="cls-3" d="M216.92,324.38A46.16,46.16,0,0,1,170,279v-.21c-.44-25.23,20.7-46.81,46.23-47.2s46.89,20.24,47.35,45.41C264,303.28,243.69,324,216.92,324.38Zm27.21-45.59c.07-15-12.31-27.92-26.83-28-15.14-.11-28,12.8-28,28.16,0,14.94,12.41,27,27.77,26.86A27.16,27.16,0,0,0,244.13,278.79Z"/><path class="cls-4" d="M270.29,278.24V246.93c.06-6.66,4.76-12.78,11.3-13.4,8.6-.82,17.45-1.69,25.86.8,18.47,5.45,29.24,18.44,32.37,37s-4,33.65-19.56,44.43c-11.75,8.12-25.08,9.17-38.7,7.66-6.84-.76-11.22-6.35-11.28-13.31C270.23,299.49,270.29,288.87,270.29,278.24Zm18.56-.51c0,7.8.23,15.6-.08,23.37-.16,3.9,1.28,4.84,4.87,4.68,15.24-.76,27.54-13.58,27.18-28.57-.38-15.69-11.78-26.4-27.93-26.58-3.42,0-4.19,1.07-4.11,4.25C289,262.51,288.84,270.13,288.85,277.73Z"/><path class="cls-3" d="M422.76,291.31c.06,9.73.06,19.48.23,29.22,0,2.57-.92,3.57-3.41,3.34h-.53c-14.77.63-14.77.63-14.77-14.28V247.37c0-9.11,5-14.13,14.07-14.19,5.5,0,11-.19,16.48,0,14.83.63,26.6,12.59,26.43,26.63-.12,9.3-5,15.94-12.64,20.14-4.55,2.49-3.85,4.37-1.73,7.93,6.87,11.54,13.43,23.27,20.63,35.85H446.33c-1.72,0-2.19-1.61-2.83-2.83q-9.24-17.67-18.43-35.33c-.22-3.2-1.19-6.37-.46-9.62,1.69-4.76,6.44-5.08,10.14-6.8,8.72-4,9.64-11.9,2.09-17.74-2.59-2-5.44-.83-8.14-1.27-4.46-.71-6.28.65-5.95,5.6.45,6.85,0,13.76-.07,20.64A25.74,25.74,0,0,0,422.76,291.31Z"/><path class="cls-5" d="M347.82,277.65c0-9.37-.09-18.74,0-28.11.13-12.38,4.69-16.84,17.08-16.87,8.49,0,17,.08,25.48,0,2.68,0,3.56.66,3.69,3.56.5,14.7.59,14.7-14.25,14.7h-1.59c-11.71,0-11.56,0-11.39,11.79,0,3.42,1.25,4.15,4.35,4,6-.21,12,.07,18-.11,2.81-.08,3.57.88,3.66,3.56.59,14.32.67,14.32-13.6,14.32-12.33,0-12.33,0-12.33,12.28,0,8.31,0,8.31,8.39,8.31,5,0,9.92.17,14.86-.06,3.08-.14,3.81,1,3.88,4,.38,14.72.46,14.71-14.25,14.72H364.39c-10.41,0-16.44-5.82-16.62-16.34C347.64,297.45,347.82,287.55,347.82,277.65Z"/><path class="cls-6" d="M168.84,241.64v.53c0,7.51,0,7.51-7.24,7.93-21.12,1.19-33.9,18.13-27.38,36.62,4.29,12.11,13.67,17.42,26.19,18.14,7.81.44,7.79.6,7.79,8.58,0,11,0,11-11.43,10.1-22.11-1.71-40.65-18.3-43.73-39.11s9.44-41.82,29.58-49.45c7.62-2.88,15.63-2.74,23.61-2.71,2.17,0,2.72,1.09,2.67,3-.06,2.13,0,4.25,0,6.38Z"/><path class="cls-7" d="M239.61,0c-3.39,7.36-6.5,14.06-9.53,20.78-3.37,7.4-6.89,14.74-10,22.25-2.9,7-4.43,8.48-12.37,7.48-12.82-1.62-25.58-3.68-38.38-5.53-3.83-.54-7.69-1-12.32-1.63,5-2.74,9.37-5,13.62-7.44,10.65-6.07,19.14-14.54,26.45-24.26,3.65-4.88,7.75-7.91,14.47-8.13C220.5,3.21,229.42,1.36,239.61,0Z"/><path class="cls-6" d="M105.86,278.7c0,13.63-.13,27.26.07,40.87,0,3.57-1,4.76-4.51,4.37-4.86-.53-11.17,2.1-14.29-1.05-2.81-2.88-.78-9.1-.81-13.84q-.1-29.46,0-58.92c0-7,9.26-16.87,15.48-17.1,3.38-.13,4.16,1.1,4.13,4.27C105.77,251.09,105.86,264.9,105.86,278.7Z"/><path class="cls-8" d="M423,291.2a25.71,25.71,0,0,1-.08-14.87l1.95-.43c-.77,3.25.23,6.42.46,9.62C421.11,286,424.8,289.71,423,291.2Z"/><path class="cls-9" d="M425,275.9l-1.94.43c.08-6.88.53-13.79.08-20.64-.33-4.95,1.5-6.31,6-5.6,2.7.44,5.54-.76,8.14,1.26,7.55,6,6.63,13.73-2.1,17.75C431.33,270.82,426.59,271.11,425,275.9Z"/></g></g></svg>