<svg width="111" height="110" viewBox="0 0 111 110" fill="none" xmlns="http://www.w3.org/2000/svg">
<path d="M105.647 62.7648V47.2354L94.1618 43.8383C93.3529 40.9266 92.0588 38.1766 90.7647 35.5883L96.5882 25.0736L85.75 14.2354V14.0736L85.5882 13.9119L74.9118 19.7354C72.3235 18.2795 69.5735 17.1471 66.6618 16.3383L63.2647 4.85303H47.7353L44.3382 16.3383C41.4265 17.1471 38.6765 18.4413 36.0882 19.7354L25.5735 13.9119L14.5735 24.9118L20.3971 35.4266C18.9412 38.0148 17.8088 40.7648 17 43.6766L5.35297 47.2354V62.7648L16.8382 66.1618C17.6471 69.0736 18.7794 71.8236 20.2353 74.4118L14.4118 84.9266L25.4118 95.9266L35.9265 90.103C38.5147 91.5589 41.2647 92.6913 44.1765 93.5001L47.5735 104.985H63.1029L66.5 93.5001C69.4118 92.6913 72.1618 91.5589 74.75 90.103L83 94.6324L67.7941 79.2648C64.0735 81.206 59.8676 82.1766 55.5 82.1766C40.7794 82.1766 28.8088 70.206 28.8088 55.4854C28.8088 40.7648 40.7794 28.7942 55.5 28.7942C70.2206 28.7942 82.1912 40.7648 82.1912 55.4854C82.1912 59.5295 81.2206 63.4118 79.6029 66.9707L95.2941 82.6618L90.7647 74.4118C92.2206 71.8236 93.3529 69.0736 94.1618 66.1618L105.647 62.7648Z" fill="#D9F24F"/>
<path d="M95.1323 104.338L64.5588 73.7648C57.2794 76.8383 49.3529 74.8971 44.3382 69.8824C39.3235 64.8677 37.7059 57.7501 39.8088 51.2795L50.3235 61.7942L60.3529 59.6913L62.2941 49.8236L51.7794 39.3089C58.0882 37.3677 65.3676 38.8236 70.3823 43.8383C75.8823 49.3383 77.1765 57.5883 74.2647 64.0589L104.676 94.4707C105.809 95.603 105.809 97.5442 104.676 98.8383L99.3382 104.177C98.2059 105.471 96.2647 105.471 95.1323 104.338Z" fill="#D9F24F"/>
</svg>
