<svg width="110" height="110" viewBox="0 0 110 110" fill="none" xmlns="http://www.w3.org/2000/svg">
<path d="M79.3418 72.3594L79.5137 64.0879C79.5352 63.1211 78.9121 62.2402 77.9668 61.9609L70.0391 59.5762L65.3125 52.7656C65.2481 52.6797 65.2051 52.6152 65.1406 52.5508C64.5606 48.2754 61.3379 44.8164 57.1699 43.9141V40.8633H62.6484C62.7774 40.8633 62.9063 40.8418 63.0566 40.8203C63.0996 40.8203 63.1426 40.7988 63.1856 40.7773C63.2715 40.7559 63.3574 40.7344 63.4434 40.6914C63.4863 40.6699 63.5293 40.6484 63.5938 40.627C63.6582 40.584 63.7441 40.5625 63.8086 40.5195C63.8516 40.4981 63.8945 40.4551 63.959 40.4336C63.9805 40.4121 64.0234 40.3906 64.0449 40.3691L74.5293 31.9688L74.6152 31.8828C74.6797 31.8398 74.7227 31.7754 74.7871 31.7324C74.8301 31.6895 74.8731 31.625 74.916 31.582C74.959 31.5176 75.002 31.4746 75.0449 31.4102C75.0879 31.3457 75.1094 31.2813 75.1523 31.2168C75.1738 31.1523 75.2168 31.0879 75.2383 31.0234L75.3027 30.8301C75.3242 30.7656 75.3242 30.7012 75.3457 30.6367C75.3672 30.5723 75.3672 30.4863 75.3672 30.4219C75.3672 30.3789 75.3887 30.3574 75.3887 30.3145V3.4375C75.3887 2.23438 74.4219 1.26758 73.2188 1.26758H36.8887C35.6855 1.26758 34.7188 2.23438 34.7188 3.4375V30.293C34.7188 30.3359 34.7188 30.3574 34.7402 30.4004C34.7402 30.4863 34.7617 30.5508 34.7617 30.6152C34.7832 30.6797 34.7832 30.7441 34.8047 30.8086L34.8691 31.002C34.8906 31.0664 34.9121 31.1309 34.9551 31.1953C34.9766 31.2598 35.0195 31.3242 35.0625 31.3887C35.1055 31.4531 35.1484 31.5176 35.1914 31.5605C35.2344 31.625 35.2773 31.668 35.3203 31.7109C35.3633 31.7754 35.4277 31.8184 35.4922 31.8613C35.5137 31.8828 35.5352 31.9258 35.5781 31.9473L46.041 40.3477C46.0625 40.3691 46.1055 40.3906 46.127 40.4121C46.1699 40.4551 46.2129 40.4766 46.2773 40.498C46.3418 40.541 46.4063 40.584 46.4922 40.6055C46.5352 40.627 46.5781 40.6484 46.6426 40.6699C46.7285 40.6914 46.8145 40.7344 46.9004 40.7559C46.9434 40.7773 46.9863 40.7773 47.0293 40.7988C47.1582 40.8203 47.2871 40.8418 47.4375 40.8418H52.916V43.8926C48.7481 44.7949 45.5254 48.2539 44.9453 52.5293C44.8809 52.5938 44.8164 52.6582 44.7734 52.7441L40.0469 59.5547L32.1191 61.9395C31.1953 62.2188 30.5508 63.0781 30.5723 64.0664L30.7441 72.3594L25.7383 78.9551C25.4558 79.3336 25.3032 79.7933 25.3032 80.2656C25.3032 80.7379 25.4558 81.1976 25.7383 81.5762L30.7441 88.1719L30.5723 96.4434C30.5508 97.4102 31.1738 98.291 32.1191 98.5703L39.9609 100.977L44.6875 107.787C45.0957 108.389 45.7832 108.711 46.4707 108.711C46.707 108.711 46.9434 108.668 47.1797 108.582L55 105.832L62.8203 108.582C63.7441 108.904 64.7539 108.582 65.3125 107.766L70.0391 100.955L77.9668 98.5703C78.8906 98.291 79.5352 97.4316 79.5137 96.4434L79.3418 88.1719L84.3477 81.5762C84.9277 80.8027 84.9277 79.7285 84.3477 78.9551L79.3418 72.3594ZM49.8223 36.5234V5.60742H60.1777V36.5234H49.8223ZM70.9414 29.2402L64.4961 34.3965V5.60742H70.9414V29.2402ZM45.4824 5.60742V34.418L39.0371 29.2617V5.62891H45.4824V5.60742ZM54.9785 48.0176H55C57.8145 48.0176 60.1777 50.0156 60.7578 52.6797L55 54.6992L49.2207 52.6797C49.8008 50.0156 52.1641 48.0176 54.9785 48.0176ZM75.4316 86.1738C75.1309 86.5605 74.9805 87.0332 74.9805 87.5273L75.1309 94.918L68.041 97.0449C67.5684 97.1953 67.1602 97.4746 66.8809 97.8828L62.6699 103.963L55.6875 101.514C55.2149 101.342 54.7207 101.342 54.2481 101.514L47.2656 103.963L43.0547 97.8828C42.7754 97.4746 42.3672 97.1738 41.8945 97.0449L34.8047 94.918L34.9551 87.5273C34.9551 87.0332 34.8047 86.5605 34.5039 86.1738L30.0352 80.2871L34.5039 74.4004C34.8047 74.0137 34.9551 73.541 34.9551 73.0469L34.8047 65.6562L41.8945 63.5293C42.3672 63.3789 42.7754 63.0996 43.0547 62.6914L47.2656 56.6113L54.2481 59.0605C54.7207 59.2324 55.2149 59.2324 55.6875 59.0605L62.6699 56.6113L66.8809 62.6914C67.1602 63.0996 67.5684 63.4004 68.041 63.5293L75.1309 65.6562L74.9805 73.0469C74.9805 73.541 75.1309 74.0137 75.4316 74.4004L79.9004 80.2871L75.4316 86.1738Z" fill="#D9F24F"/>
<path d="M55 60.7793C44.2578 60.7793 35.5137 69.5234 35.5137 80.2656C35.5137 91.0078 44.2578 99.752 55 99.752C65.7422 99.752 74.4863 91.0078 74.4863 80.2656C74.4863 69.5234 65.7422 60.7793 55 60.7793ZM55 95.4336C46.6426 95.4336 39.832 88.6231 39.832 80.2656C39.832 71.9082 46.6426 65.0977 55 65.0977C63.3574 65.0977 70.168 71.9082 70.168 80.2656C70.168 88.6231 63.3574 95.4336 55 95.4336Z" fill="#D9F24F"/>
</svg>
