<svg width="74" height="96" viewBox="0 0 74 96" fill="none" xmlns="http://www.w3.org/2000/svg">
<g clip-path="url(#clip0_129_598)">
<path d="M71.9708 9.73613C71.4384 9.30533 70.8161 8.99943 70.1499 8.84083C69.4836 8.68223 68.7903 8.67483 68.1208 8.81943C63.2233 9.84583 58.1674 9.85893 53.2646 8.85783C48.3617 7.85683 43.7157 5.86283 39.6125 2.99861C38.8453 2.46636 37.9338 2.18115 37 2.18115C36.0662 2.18115 35.1547 2.46636 34.3875 2.99861C30.2843 5.86283 25.6383 7.85683 20.7354 8.85783C15.8326 9.85893 10.7768 9.84583 5.87918 8.81943C5.20968 8.67483 4.51638 8.68223 3.85008 8.84083C3.18388 8.99943 2.56158 9.30533 2.02918 9.73613C1.49738 10.1675 1.06908 10.7125 0.775579 11.3312C0.482079 11.9498 0.330978 12.6264 0.333278 13.3111V47.4569C0.329278 54.0283 1.89518 60.5055 4.90078 66.3492C7.90638 72.193 12.2646 77.2341 17.6125 81.0527L34.3417 92.9694C35.1179 93.5218 36.0471 93.8188 37 93.8188C37.9529 93.8188 38.8821 93.5218 39.6583 92.9694L56.3875 81.0527C61.7354 77.2341 66.0937 72.193 69.0992 66.3492C72.1048 60.5055 73.6708 54.0283 73.6667 47.4569V13.3111C73.669 12.6264 73.5179 11.9498 73.2244 11.3312C72.931 10.7125 72.5026 10.1675 71.9708 9.73613ZM64.5 47.4569C64.5035 52.5662 63.2867 57.6025 60.9509 62.1466C58.6151 66.6907 55.2278 70.6112 51.0708 73.5819L37 83.6194L22.9292 73.5819C18.7723 70.6112 15.3849 66.6907 13.0491 62.1466C10.7133 57.6025 9.49648 52.5662 9.49998 47.4569V18.5819C19.1086 19.4043 28.7319 17.1749 37 12.2111C45.2682 17.1749 54.8914 19.4043 64.5 18.5819V47.4569ZM44.0583 36.9611L31.7292 49.3361L27.65 45.2111C26.7869 44.348 25.6164 43.8632 24.3958 43.8632C23.1753 43.8632 22.0047 44.348 21.1417 45.2111C20.2786 46.0741 19.7938 47.2447 19.7938 48.4653C19.7938 49.6858 20.2786 50.8564 21.1417 51.7194L28.475 59.0527C28.9011 59.4823 29.408 59.8233 29.9665 60.056C30.5251 60.2887 31.1241 60.4085 31.7292 60.4085C32.3342 60.4085 32.9333 60.2887 33.4918 60.056C34.0503 59.8233 34.5573 59.4823 34.9833 59.0527L50.75 43.4236C51.6131 42.5605 52.0979 41.39 52.0979 40.1694C52.0979 38.9489 51.6131 37.7783 50.75 36.9152C49.8869 36.0522 48.7164 35.5673 47.4958 35.5673C46.2753 35.5673 45.1047 36.0522 44.2417 36.9152L44.0583 36.9611Z" fill="#D9F24F"/>
</g>
<defs>
<clipPath id="clip0_129_598">
<rect width="73.3335" height="95.6377" fill="white" transform="translate(0.333252 0.181152)"/>
</clipPath>
</defs>
</svg>
