<svg width="300" height="155" viewBox="0 0 300 155" fill="none" xmlns="http://www.w3.org/2000/svg">
<path d="M5.84839 7.08252L8.18774 8.99687L11.3069 12.0598L12.8665 15.1228V17.8029V21.2487V24.6945L11.3069 26.226V28.1404L9.74731 30.8204H8.18774H4.67871L5.84839 33.5005L3.11914 34.6491V36.5635L1.16968 37.7121L3.11914 39.6265L6.62817 40.3922H9.74731H12.8665L14.426 42.6894H17.5452L21.834 44.9866H25.7329H28.0723L31.5813 42.6894L36.26 44.9866L40.9387 43.838L45.2275 42.6894H49.5163L51.8557 40.3922V39.6265L49.5163 37.7121V36.5635V34.6491L50.686 31.9691L49.5163 30.8204V28.1404H50.686L53.8052 26.226H58.4839L61.9929 24.6945L64.3323 22.7802H67.4514V26.226L69.4009 28.1404L72.52 30.8204H74.4695L76.8088 28.1404H79.1482V26.226L81.4875 24.6945V22.7802L83.0471 21.2487L84.6067 22.7802L85.7763 26.226V28.1404L87.7258 30.8204V31.9691L88.8955 34.6491L90.455 36.5635V39.6265V40.3922L88.8955 42.6894L92.0146 43.838L96.6933 44.9866L100.202 46.1352H104.101L106.831 47.6667H108.78L111.899 46.1352H115.408L116.578 44.9866H118.917V47.6667L120.867 49.1982H123.986L126.325 51.4954H129.834L131.784 53.4098H134.513H137.242L139.192 54.9412H142.311L145.04 56.4727L147.379 54.9412L150.888 53.4098H154.008H156.347L157.906 54.9412V56.4727V60.3014L159.466 61.45V64.513L161.026 67.576V69.8732L159.466 71.7875V74.0847L161.026 75.6162V77.1477V79.8278V81.7421V82.8907V85.5708L162.585 88.2509L161.026 90.1653L162.585 91.6968L161.026 93.2282L162.585 95.9083L163.755 97.4398L166.094 95.9083H168.434L171.163 97.4398L175.062 98.9713L176.231 100.12V102.8L178.571 105.097L180.91 106.246L182.86 107.777V110.457V113.52V114.436L185.199 115.818L187.928 117.349V115.818L190.657 117.349L192.217 121.178L193.777 123.858V126.921V129.984L196.506 133.43L201.574 136.11V138.024V140.321H204.304L202.744 143.384L201.574 146.064H204.304L207.423 147.213L210.152 148.744L213.271 147.213L214.831 148.744L216.78 151.424L217.95 153.722H221.849L224.188 151.424V147.213L225.748 143.384L226.917 140.321L227.517 138.024L230.037 136.11L231.596 133.43L233.546 131.898L235.885 128.835L238.224 125.389L239.784 121.178L240.954 118.498H243.293L244.852 117.349V114.436L247.192 111.989V115.818H250.311L251.871 114.436V113.52V110.457V107.777L253.04 106.246L256.939 105.097L258.109 102.8V100.12L259.668 98.9713H261.618V95.9083L262.787 93.2282V91.6968H265.907L269.026 90.1653L271.365 88.2509L274.484 87.1023L279.553 88.2509L282.282 90.1653H285.401H288.91L293.199 93.2282L297.098 95.9083L299.437 97.4398V102.8L297.098 105.097L294.369 106.246V107.777H293.199L291.25 110.457V111.989V115.818L288.91 117.349V119.646L291.25 122.326V125.389H288.91L290.08 128.835L288.11 129.984V131.898L288.91 136.11L286.961 138.024L288.11 140.321L288.91 143.384L286.961 146.064L285.401 148.744" stroke="#181819"/>
<circle cx="284.5" cy="145.5" r="5.5" fill="#FF0000"/>
<circle cx="5.5" cy="5.5" r="5.5" fill="#38FC19"/>
</svg>
