<svg width="262" height="215" viewBox="0 0 262 215" fill="none" xmlns="http://www.w3.org/2000/svg">
<path d="M239.841 142.43L242.71 145.326V149.67L239.841 154.738H234.462L225.138 158.358L214.379 152.204H210.793V149.67L207.566 148.222L203.262 147.136L197.524 146.412L194.655 148.222H192.145L189.276 147.136L188.2 146.412H186.765H184.972L182.462 145.326L180.31 143.878L178.517 142.43H176.724L175.29 143.878L174.214 145.326L173.138 146.412H170.628L167.759 145.326H165.966H163.814V147.136V148.222V152.204L162.379 154.738L159.869 155.824L158.076 158.358L158.793 160.53V162.341V164.875L159.869 166.685H161.303V168.133V171.029L162.379 172.839L161.303 175.735V178.269V179.717L158.076 181.889L155.207 183.699H152.697L150.903 181.889L148.752 181.165L146.6 181.889L144.448 182.975H142.297L141.221 181.889L139.786 179.717L137.276 178.269L134.407 176.459L131.179 175.735H129.028L126.876 173.563H122.572H119.345L117.552 175.735H115.4L113.607 173.563L111.097 172.839L110.379 172.115H108.586L106.076 172.839L104.641 174.649L102.49 175.735L99.9793 176.459V178.269L102.49 179.717H104.641V181.165H102.49L99.9793 181.889L98.1862 182.975L96.7517 181.889L95.6759 182.975H94.2414L93.5241 180.079V178.269L92.4483 176.459C90.894 177.545 87.7145 180.369 87.4276 182.975C87.1407 185.582 87.3078 185.268 87.4276 184.785H84.9172V186.595L83.4828 188.405L84.9172 190.216L87.4276 192.026L85.9931 196.37L87.4276 199.628L85.9931 202.162L83.4828 203.248L80.9724 202.162H78.8207L75.5931 200.352H73.4414L72.7241 202.886L74.1586 205.058L75.5931 206.506V207.954V210.126L72.7241 211.212L70.2138 211.936H67.3448L64.4759 213.746C63.7586 213.988 61.8221 213.819 59.8138 211.212H56.9448L55.5103 210.126L54.0759 207.954L51.2069 206.506V203.248L48.3379 202.162L46.9034 200.352L45.8276 197.456L46.9034 196.37V193.836L45.8276 192.026V190.216L44.3931 188.405L45.8276 186.595L42.6 183.699L40.8069 182.975L42.6 181.165V176.459V172.839L44.3931 172.115L43.6759 168.857L46.9034 172.839L48.3379 168.857L51.2069 168.133L48.3379 160.53L46.9034 159.082V156.548L45.8276 153.652L42.6 151.842L41.8828 148.222H44.3931L45.8276 146.05L46.9034 143.878L48.3379 142.068L44.3931 140.258L43.6759 137.362V134.827L40.8069 133.017L39.3724 130.845L37.5793 127.949L36.5034 125.777L34.7103 123.967V120.709L30.7655 119.623L28.6138 117.813L26.4621 116.003L24.669 113.469L21.4414 112.383L18.931 110.211H14.9862H11.7586L9.96552 109.125L8.53103 106.59H7.09655L5.30345 103.694V101.884V98.2641L3.15172 96.092V92.4719L1 89.9378V85.9556V83.0595V79.4394L2.07586 76.1813L3.86897 74.7332L5.30345 73.6472V71.8371L7.09655 69.665V65.6829V63.1488L9.96552 61.7007L14.9862 55.9085L15.7034 53.3744L16.4207 52.2884V49.0302V46.4961L21.4414 43.238V38.1698L23.5931 36.7218L26.4621 34.1877L28.6138 31.2916L30.7655 29.8435L34.7103 31.2916H36.5034L38.2965 29.8435L39.3724 28.7575H41.1655H42.9586L44.3931 26.9474H45.469L47.2621 25.1373L49.0552 26.9474L47.2621 29.8435H50.131L51.5655 31.2916H54.0759V29.8435V26.9474H55.869L58.0207 28.7575L59.0965 31.2916V34.1877L62.3241 35.2737L59.8138 38.5318L61.2483 40.3419L63.4 41.79L66.269 38.5318H69.8552V36.7218L68.4207 35.2737L69.8552 32.3776L71.6483 31.2916L69.8552 28.7575L71.6483 26.9474L74.1586 24.0513L76.3103 22.6032H80.6138L83.1241 21.1552L84.9172 22.6032L86.7103 24.0513H89.5793L93.5241 22.6032L96.0345 21.1552L100.338 24.0513L103.207 26.9474C104.522 26.7061 107.152 26.0062 107.152 25.1373C107.152 24.2685 108.108 23.0859 108.586 22.6032L110.738 24.0513H113.607L116.834 25.1373L117.552 27.6714L118.628 29.8435L120.062 31.2916V34.1877H122.572L124.007 35.2737L126.159 34.1877L128.669 35.2737L130.821 36.7218L131.897 35.2737H135.124V32.3776L138.71 33.4636V31.2916L139.786 28.7575L141.579 27.6714V25.1373C141.579 23.81 142.297 21.1552 145.166 21.1552L147.676 19.7071L149.828 17.173H154.131L158.434 19.7071L161.662 21.1552H167.041L169.552 17.173V1.60645L173.138 5.22658L174.214 9.57075V12.4669L176.366 17.173L177.8 18.2591H180.31H183.179L186.048 17.173L185.331 16.087L187.124 13.5529L188.917 11.3808L191.428 13.5529V16.087L195.372 13.5529L193.938 11.3808L195.372 9.57075H197.166L198.959 11.3808H201.11H202.903L205.414 13.5529L205.772 15.363L207.207 17.173L209 19.7071L211.869 18.2591L214.379 17.173H216.89L219.4 13.5529L223.345 15.363H226.572L230.159 11.3808L234.103 9.57075L236.972 11.3808L239.124 13.5529L241.993 15.363L245.938 14.2769L249.166 13.5529L251.317 12.4669H256.338L258.848 14.2769L261 17.173V19.7071L259.924 22.9653L257.414 25.1373L254.903 26.9474H251.317L247.372 28.7575L244.503 30.5675V33.8257L241.993 35.2737L243.428 37.4458V41.79L241.993 44.3241V47.2202L244.503 48.6682L245.938 50.8403L247.372 53.0124L249.166 56.6325L249.883 59.5286H251.317L249.883 62.0627L247.372 63.5108L244.145 64.2348L241.993 63.5108H239.124L238.048 62.0627H235.538L234.821 61.3387L233.028 62.0627H231.234H228.724V63.5108L227.648 65.3209L226.572 68.579L225.855 70.027V72.1991H221.552V75.4572L222.628 77.9913L223.345 80.8874V84.1456L221.552 85.5936L222.628 87.4037V89.5758H220.117L217.248 91.7478L215.097 95.73L212.586 97.5401H209.717L208.641 95.73L207.207 92.8339L206.848 90.2998L205.772 88.1277L203.621 85.5936V84.1456L199.317 80.8874L198.241 82.3355L197.166 80.8874L195.731 82.3355L193.579 80.8874L192.862 76.5433" stroke="#181819"/>
<circle cx="191.5" cy="68.5" r="5.5" fill="#FF0000"/>
<circle cx="239.5" cy="137.5" r="5.5" fill="#38FC19"/>
</svg>
