<svg width="355" height="219" viewBox="0 0 355 219" fill="none" xmlns="http://www.w3.org/2000/svg">
<path d="M295.169 201.659L297.025 200.877L297.569 197.61L299.047 195.119L301.272 193.713L301.447 191.07L304.609 191.217L304.966 187.484L307.194 186.857L308.302 184.988L308.29 181.878L310.703 180.939L311.996 178.759L312.734 177.513L314.402 176.265L316.628 174.86L318.49 175.632L320.346 174.85L321.836 175.469L323.689 173.909L325.548 173.904L327.025 171.413L327.198 167.991L324.963 167.064L323.276 163.647L321.217 160.076L316.747 158.221L313.949 155.895L311.148 152.792L305.934 150.628L303.327 149.546L303.339 152.656L300.926 153.595L299.067 153.6L297.574 152.204L295.161 153.143L294.422 154.389L294.429 155.944L292.76 157.192L291.452 155.485L289.036 155.647L288.297 156.892L286.441 157.675L286.072 158.298L285.333 159.543L283.474 159.548L281.612 158.775L279.756 159.557L277.903 161.117L278.094 162.36L276.61 163.297L277.734 165.316L275.317 165.477L272.338 164.241L273.63 162.061L271.402 162.688L270.479 164.246L268.438 165.339L266.203 164.412L264.341 163.639L263.787 164.573L261.377 166.29L260.638 167.536L258.037 168.009L255.44 169.259L254.701 170.505L252.285 170.666L248.939 170.83L247.267 171.301L246.159 173.17L244.119 174.263L241.709 175.98L239.85 175.985L237.812 177.856L235.227 182.216C234.052 182.893 231.032 183.968 228.35 182.855L228.529 180.989L227.778 179.125L228.701 177.567L226.463 175.863L223.856 174.781L221.624 174.631L220.686 172.301L218.817 169.973L217.327 169.354L220.11 167.792L219.728 165.305L219.907 163.439L221.015 161.57L217.472 158.936L217.275 156.137L218.567 153.957L220.414 150.842L220.032 148.355L220.211 146.489L219.457 143.847L218.706 141.983L216.85 142.765L213.864 139.974L212.928 138.421L215.156 137.793L215.895 136.547L217.003 134.679L217.551 132.189L214.941 130.33L214.187 127.688L214.925 126.442L214.174 124.578L211.749 122.407L210.622 119.611L208.387 118.684L205.414 119.002L203.921 117.606L204.284 115.429L206.322 113.557L206.685 111.38L207.984 110.754L208.347 108.576L209.455 106.708L208.889 104.532L211.486 103.282L212.97 102.345L211.474 100.172L211.095 98.462L214.435 96.7432L215.543 94.8744L214.789 92.2328L217.568 89.8933L217.744 87.2494L219.036 85.0692L217.913 83.0505L218.836 81.4932L214.736 79.0154L210.273 78.7156L206.746 79.9684L204.883 79.1955L202.276 78.1136L201.153 76.0949L199.844 74.3876L197.604 71.9052L195.92 69.266L193.303 65.8515L192.364 63.5213L191.241 61.5027L189.933 59.7954L190.487 58.861L189.363 56.8424L186.011 55.4512L183.783 56.0788L181.176 54.9968L178.759 55.1584L175.226 54.8562L172.997 55.4838L169.467 55.9591L168.9 53.7835L167.777 51.7648L165.542 50.8374L164.425 50.3737L161.824 50.8467L160.531 53.0269L158.869 55.8301L156.641 56.4577L156.093 58.947L154.055 60.8181L151.27 61.6026L150.162 63.4714L148.493 64.7195L149.617 66.7382L149.999 69.2253L148.884 69.5391L147.032 71.0987L144.806 72.5038L143.329 74.9955L144.083 77.6371L142.415 78.8852L142.79 79.8173L140.199 82.6228L138.537 85.4259L137.613 86.9832L136.881 89.7841L133.726 91.1915L130.752 91.5099L130.014 92.7557L128.906 94.6245L126.68 96.0296L128.733 98.0459L128.37 100.224L127.632 101.47L125.594 103.341L122.996 104.591L119.463 104.289L117.985 106.781L115.197 106.788L112.414 108.35L112.217 105.551L107.381 105.097L104.402 103.86L101.613 103.867L99.3847 104.495L93.9919 104.197L89.1563 103.743L85.4319 102.197L82.4616 103.293L78.7496 104.857L74.2895 105.335L71.3099 104.099L68.5275 105.66L65.191 108.157L63.3349 108.939L62.4116 110.496L61.1189 112.677L57.7699 112.063L55.1628 110.981L51.2568 110.524L49.9486 108.817L47.9048 109.133L47.3384 106.957L44.7312 105.875L42.1241 104.794L41.7548 105.416L39.3385 105.578L35.0755 108.854L34.6938 106.367L31.7142 105.131L30.5938 103.889L29.8458 102.803L30.2089 100.625L31.6925 99.6881L31.5016 98.4446L32.7943 96.2643L30.929 94.714L29.4361 93.3182L27.5739 92.5454L27.7524 90.6789L30.1593 88.1849L25.3237 87.7305L24.4004 89.2878L22.5381 88.515L20.3003 86.8101L19.3615 84.4799L18.9859 83.5479L17.3053 81.6861L17.6684 79.5082L13.5715 77.8079L12.2633 76.1007L12.0693 74.0797L12.808 72.8338L14.2947 72.6746L16.1569 73.4474L19.6812 71.4171L21.1648 70.4804L22.4637 69.8552L23.9473 68.9185L23.7502 66.12L25.7878 64.2489L26.8958 62.3801L28.3856 62.9984L28.9334 60.509L28.9272 58.954L30.5893 56.1509L33.5564 54.2774L36.5298 53.959L38.7459 50.2215L38.5488 47.423L36.4926 44.6291L37.97 42.1374L40.7587 42.1304L40.3769 39.6434L42.5992 37.4608L44.4583 37.4562L47.0623 37.7607L48.9246 38.5335L51.1592 39.4609L53.397 41.1658L57.4846 40.5336L59.7069 38.3511L61.7507 38.0349L63.7945 37.7188L66.577 36.1569L67.5003 34.5996L68.793 32.4193L72.6929 31.3211L75.3 32.4031L77.1622 33.1759L78.1042 36.2836L81.4531 36.8972L83.4938 35.8036L86.8396 35.6397L90.7425 35.319L91.8506 33.4502L93.1433 31.27L94.4422 30.6447L96.1042 27.8416L98.7021 26.5911L104.095 26.8886L107.441 26.7247L109.666 25.3196L109.657 22.9872" stroke="#181819"/>
<ellipse cx="109.694" cy="19.5" rx="5.77143" ry="5.5" fill="#FF0000"/>
<ellipse cx="296.478" cy="198.5" rx="5.77143" ry="5.5" fill="#38FC19"/>
</svg>
