<svg width="110" height="110" viewBox="0 0 110 110" fill="none" xmlns="http://www.w3.org/2000/svg">
<path d="M95.6313 16.5689C95.047 15.8125 94.2906 15.2282 93.3969 14.8501L72.0501 6.18756C70.6406 5.63763 68.9563 5.63763 67.6156 6.42822C66.0344 7.21877 65.0374 8.90311 64.9 10.6563C64.2125 11.5845 60.7062 13.475 55 13.475C49.2939 13.475 45.7875 11.5845 45.1 10.6563C45.0312 7.21877 41.1468 4.77829 38.0188 6.15315L16.6032 14.8501C15.7094 15.2282 14.9531 15.8125 14.3687 16.5689L2.71552 32.3813C1.40927 34.1688 1.37507 36.6093 2.68132 38.4313L15.2969 56.0657C16.9812 58.5062 20.7282 58.9189 22.8936 56.8906L25.4718 99.3781C25.6094 102.094 27.8781 104.225 30.5938 104.225H79.4062C82.1219 104.225 84.3906 102.094 84.5282 99.3781L87.1063 56.8906C89.2717 58.9189 93.0187 58.5062 94.7031 56.0657L107.319 38.4313C108.625 36.6093 108.591 34.1688 107.284 32.3813L95.6313 16.5689Z" fill="#D9F24F"/>
</svg>
