<svg xmlns="http://www.w3.org/2000/svg" viewBox="0 0 162.28 163"><defs><style>.cls-1{fill:#fff;}</style></defs><g id="Capa_2" data-name="Capa 2"><g id="Capa_1-2" data-name="Capa 1"><path class="cls-1" d="M144.11,122.79c2.66,5.4,5.83,11.12-5.11,9.13-3-.55-1.78,2.77-1.31,4.47,1.38,4.94-.4,6.65-5.1,5-4.09-1.48-5.81-1.54-4.67,3.86,1,4.84-1.45,6.53-5.82,3.42-3.59-2.56-5.26-1.34-5.34,2.65-.11,5.17-2.05,6.5-6.1,3-3.7-3.18-5.11-2.28-6,2.29s-3.36,5.85-6.62,1.5c-2.58-3.44-4.43-3.22-5.66,1a3.58,3.58,0,0,1-.3.79c-2.09,3.32-3.94,4.64-6.49.13s-4.4-3.57-6.88.82c-1.94,3.44-5.09,2.84-6.34-1.54-1.11-3.87-2.84-4.94-5.53-1.09-2.91,4.16-5.43,4.31-6.7-1-1.1-4.63-2.41-6-6.51-2.13-3.08,2.88-5.67,2-5.66-2.77,0-4.18-1.13-6.26-5.4-3.09-4.54,3.36-6.29,1.29-6-3.46.24-3.93.29-6.32-4.84-3.85-5,2.4-6.32-.46-5-4.89s.1-5.1-4-3.88-6.32-.74-4.55-4.8c2-4.51,2-6.18-3.79-5.56-4.64.5-5.28-2.68-2.77-5.92,2.91-3.74,2.52-5.27-2.38-5.62s-6.37-2.71-2.55-6.42c2.71-2.64,3.78-4.43-.79-5.8-5.16-1.54-6-4-1.35-7.28,3.65-2.61,2.64-4.33-.92-5.78-5.12-2.08-4.61-4.59-.16-6.71,3.71-1.77,4.28-3.43.66-5.77C0,70.66.08,68.19,4.79,66.45c3.89-1.44,5.5-2.78,1.47-6.18-4.27-3.6-2.14-6,2.21-6.5,5-.53,5.3-2.15,2.3-5.65s-1.17-6,2.58-6c5.11.1,6.26-.81,3.74-5.63-2.12-4.07.29-5.91,4.23-5,5,1.11,5.39-.26,3.83-4.66-1.42-4,.72-5.72,4.84-4.8.27.06.5.28.77.35,9.5,2.56.72-7.07,5.77-8.65,3.23-1,8.95,8.05,9.64-2.16.29-4.32,2.47-5.9,5.74-2.91,4.4,4,5.39,1.8,6.57-2.41s3.42-4.92,6.24-1.11c2.37,3.22,4.45,3.53,5.83-.7,1.93-5.95,5.09-5.54,8-1.16C81.34,7.43,82.79,6.77,85,3s4.71-4,6.38.55c1.45,3.93,3,5.5,6.23,1.28,3.45-4.54,5.59-2.64,6.56,1.83s2.3,5.15,6,1.81,6.13-2,6.18,3.2c0,3.87,1.32,5.44,5.08,2.6,4.53-3.42,6.31-1.25,5.79,3.49-.49,4.54.27,5.77,5,3.66,3.61-1.64,6.46,0,5.17,4.49-1.22,4.18-1,6.05,4,4.71,4.55-1.23,6.05,1.4,4.15,4.93-2.76,5.12-1.05,5.78,3.79,5.73,3.77,0,6.22,1.63,2.81,5.67-3,3.59-2,5.44,2.48,6.06,4.88.68,6.49,2.61,2,6.29-3.5,2.87-2.27,4.9,1.31,5.78,2.2.55,4.61,2.78,3.6,3.26-10.08,4.8,5,11.52-1.39,16-3.38,2.35-4.66,3.72-.46,6.61s3.13,5.59-1.56,6.75c-4.22,1-4.65,2.48-1.34,5.48,4.34,3.93,2.87,6.18-2.49,6.63-2.28.2-3.92.77-3.44,3.55C152.12,121,152.11,121,144.11,122.79Zm-62-23.2A18,18,0,1,0,63.71,81.5,18,18,0,0,0,82.07,99.59Zm63.66-17.85c0-10.73-4.37-16.34-12.69-16.45-9.76-.13-23.32,9.25-23.41,16.19S123,97.77,132.9,97.89C141.35,98,145.76,92.44,145.73,81.74Zm-128-.47c0,10.78,4.27,16.43,12.53,16.6,9.69.21,23.33-9.08,23.55-16s-13-16.35-23.11-16.55C22.12,65.11,17.71,70.55,17.72,81.27ZM98,31.34c.5-8.27-4.34-13.23-13.44-13.78C72.71,16.86,66,21,65.47,29.3c-.64,9.78,8.83,24.17,16,24.36C88.11,53.83,97.37,41.27,98,31.34ZM81,145.61c11.26.07,17-4.33,17-13,0-10-9.55-23.28-16.5-23.09S65.39,123.35,65.43,133.1C65.46,141.22,70.85,145.54,81,145.61ZM54.8,98.87c-13.74.25-25.41,8.28-25.08,16.32.31,7.37,11.67,18.23,19,18.17,8.2-.08,15.94-11.9,15.83-24.05C64.49,101.87,60.8,98.43,54.8,98.87Zm56-34.68c12.29-.62,23.18-8.27,22.93-16.12S121.39,29.19,114,29.84c-8.13.71-15.57,13.14-15,24.78C99.27,62.47,103.85,64.72,110.8,64.19ZM64.46,53.63c0-12.05-8-24.08-16-24.07-7.2,0-18.32,11.19-18.53,18.65-.23,8.25,11.26,16.1,23.66,16.18C61.4,64.43,64.47,61.38,64.46,53.63Zm34.48,55.5c-.23,11.68,7.71,24.15,15.59,24.5,7.45.33,19-11.34,18.95-19.12-.08-8-11.09-15.39-23.26-15.71C102.37,98.6,99.09,101.61,98.94,109.13Z"/></g></g></svg>