<svg xmlns="http://www.w3.org/2000/svg" viewBox="0 0 311.97 314.2"><defs><style>.cls-1{fill:#080808;}</style></defs><g id="Capa_2" data-name="Capa 2"><g id="Capa_1-2" data-name="Capa 1"><path class="cls-1" d="M156.68,0c.64,2.87,3.18,4.33,4.74,6.51,2.69,3.73,5.33,3.53,8,.25,4.16-5,7.78-5,10.59,1.12,2.16,4.69,5,4.65,8.48,1.66,4.33-3.7,7.81-4.14,9.9,2.27,1.51,4.63,4.28,6.34,8.64,3,4.72-3.63,7.92-2.87,9.29,3.18,1.15,5.12,3.72,7.05,8.73,4.17s7.95-1.19,8.3,4.49c.37,6.22,4,6.92,8.73,5.2,4.31-1.56,7-1.78,6.78,4.19s1.84,9.78,9.06,7.44c4.6-1.49,6.51,1.15,5.74,5.43-1.17,6.45,1.71,8.61,7.69,8.37,4.54-.19,5.74,2.27,4.81,6.44-1.13,5.12-.21,8.59,6.27,8.69,4.91.07,7,2.51,4.56,7.73-2.12,4.57-.81,7.83,4.76,8.7,5.16.8,7.23,3.3,4,8.35s-1.73,8,3.89,9.35c6,1.44,5.8,4.8,2.51,8.82-3.85,4.7-2,7.67,2.84,9.56,5.94,2.31,4.62,5.48,1.5,9.22-2.06,2.48-5.49,5.2-.5,8.06,7.5,4.31,6.13,8.59.25,13.1a24,24,0,0,0-2.52,2.64c2.11,2.25,4.18,4.52,6.32,6.7,1.76,1.8,3.2,3.76.15,5.4-10.43,5.61-4.51,11.29.15,17.23-2,1.37-3.71,3-5.73,3.82-5.48,2.32-5.53,5.59-2.24,9.79,3,3.8,3.42,6.85-2.34,8.29-6.57,1.63-7.35,5.28-3.7,10.67,2.62,3.85.65,6.33-3.26,6.93-6.65,1-8.61,4-5.61,10.2,2.71,5.64-2,6.42-5.38,6.62-5.17.31-7.23,2.28-5.94,7.32,1.52,6-1.31,8.4-6.82,8.09-4.54-.26-6.17,1.46-5.59,5.88.8,6-.69,9.44-7.88,7.17-5.65-1.79-7,2.23-6.83,6.56.21,5.81-1.42,7.81-7.33,5.39-5.1-2.09-8-.07-8.39,5.71-.34,5.17-2.87,6.89-7.82,4.17s-8.2-1.65-9.31,4.46c-.86,4.68-3.31,7.06-8,3.44-4.52-3.47-8-3-10,2.7-1.68,4.84-4.35,6.37-8.57,2.6s-7.71-3.57-10.31,2c-2.34,5-5.48,5-8.87.91s-6.78-4.39-9.86.38-5.9,5.47-9.29.25c-2.76-4.24-6.12-5.53-9.83-.87s-6.91,3.93-9.42-1.09c-2.19-4.37-4.84-6-9-2.23-4.38,3.94-7.85,3.8-9.85-2.39-1.57-4.87-4.52-6-8.67-2.85-4.88,3.66-7.94,2.49-9.24-3.34-1.19-5.32-4-6.81-8.79-4.06-5.32,3-7.87.88-8.23-4.64s-3.4-7-8-5.24c-5.17,1.93-8,1.7-7.58-5,.33-5.46-2-8.62-8.25-6.62-4.87,1.57-7.18-.4-6.46-5.4.79-5.56-.77-8.49-7-8.13-4.38.25-6.73-1.79-5.5-6.71,1.32-5.29-.22-8.39-6.41-8.57-4.07-.13-7.1-1.9-4.67-7s1.3-8.43-4.8-9.41c-4.65-.74-7-3.17-3.93-7.8,3.54-5.34,1.61-8.08-3.83-10.11-2.24-.84-7.58-1.14-3.74-5.81,6.11-7.43,2.16-11.16-4.54-14.29a12.1,12.1,0,0,1-2.13-1.67c2-2.8,3.65-5.39,5.56-7.78,1.47-1.84,2.12-3.66-.22-4.92-12-6.46-3.89-11.47,1.91-17.17-2-1.62-3.69-3.12-5.49-4.52-4.17-3.23-4.4-6.29.43-9,5.32-3,5.47-6.39,1.24-10.44C1,129.84,1.59,127,6.53,125c5.58-2.22,6.34-5.71,2.58-10.22-3.61-4.34-2.2-6.86,2.77-8.18,5.29-1.4,7.3-4.34,4.09-9.3s-1.53-7.6,3.74-8.46c5.5-.89,7.09-4,4.93-8.7-2.4-5.2-.44-7.59,4.52-7.77,5.49-.21,7.79-2.48,6.31-7.8-1.63-5.89,1.65-7.75,6.44-7.6s6.64-1.57,6-6.35c-.73-5.59.62-9,7.42-6.84,6.29,2,7.42-2.36,7.32-6.89-.12-5.41,1.34-7.3,6.84-5.09s8.47.21,8.92-6c.34-4.49,2.53-6.6,7.35-3.93,5.19,2.87,8.61,1.5,9.8-4.73,1-5.41,4.11-5.85,8.3-2.85s7.52,3.19,9.39-2.51C115,6.59,117.93,5,122.41,9.07c4.12,3.72,7,3.16,9.79-1.82,1.21-2.2,2.29-6.28,6.89-3.4C148.55,9.77,148.65,9.62,155,0ZM295,158.35C295,82.46,232.7,19.19,158.35,18.7,79.53,18.18,17.49,80.48,16.84,155.88c-.68,77.9,61.44,141.23,137.32,141.26C232.15,297.16,295,235.25,295,158.35Z"/></g></g></svg>